<?xml version="1.0" encoding="UTF-8" standalone="no"?>
<!-- Created with Inkscape (http://www.inkscape.org/) -->

<svg
   version="1.1"
   id="svg1"
   width="480"
   height="187.52"
   viewBox="0 0 480 187.52"
   sodipodi:docname="stock-vector-crowd-of-people-silhouette-cheerful-fans-people-big-event-concert-or-sport-vector-illustration-2477878645.svg"
   inkscape:version="1.4 (86a8ad7, 2024-10-11)"
   xmlns:inkscape="http://www.inkscape.org/namespaces/inkscape"
   xmlns:sodipodi="http://sodipodi.sourceforge.net/DTD/sodipodi-0.dtd"
   xmlns="http://www.w3.org/2000/svg"
   xmlns:svg="http://www.w3.org/2000/svg">
  <defs
     id="defs1" />
  <sodipodi:namedview
     id="namedview1"
     pagecolor="#ffffff"
     bordercolor="#000000"
     borderopacity="0.25"
     inkscape:showpageshadow="2"
     inkscape:pageopacity="0.0"
     inkscape:pagecheckerboard="0"
     inkscape:deskcolor="#d1d1d1"
     inkscape:zoom="2.1517704"
     inkscape:cx="199.37071"
     inkscape:cy="126.6399"
     inkscape:window-width="2560"
     inkscape:window-height="1009"
     inkscape:window-x="-8"
     inkscape:window-y="-8"
     inkscape:window-maximized="1"
     inkscape:current-layer="g1" />
  <g
     inkscape:groupmode="layer"
     inkscape:label="Image"
     id="g1">
    <path
       style="fill:currentColor;stroke-width:1.10807"
       d="m 0,178.73741 v -8.76672 l 0.88,-0.98677 c 0.484,-0.54273 1.924,-1.73292 3.2,-2.6449 1.9803725,-1.4154 2.3192827,-1.81374 2.3150999,-2.72106 -0.00696,-1.50978 -0.2797144,-1.84094 -1.9924439,-2.41908 -0.8345393,-0.28171 -1.8975742,-0.94486 -2.3622999,-1.47366 -0.7619888,-0.86706 -0.8277182,-1.16114 -0.6694037,-2.99483 0.1695302,-1.9636 1.3687808,-7.46775 2.1551337,-9.89133 0.2103415,-0.6483 0.475021,-2.06274 0.5881765,-3.1432 0.1801171,-1.71986 0.3335266,-2.03789 1.2319155,-2.55385 0.7025754,-0.4035 1.0940423,-0.96104 1.2413824,-1.76804 0.1183623,-0.64829 0.7173889,-2.44472 1.3311703,-3.9921 0.9996815,-2.52024 1.2311471,-2.83992 2.2213422,-3.06801 0.607957,-0.14003 1.31115,-0.35156 1.562651,-0.47006 0.307204,-0.14474 0.457276,0.0563 0.457276,0.6124 0,0.47391 0.205209,0.82782 0.48,0.82782 0.679135,0 0.595629,1.25835 -0.220354,3.32052 -0.772044,1.95111 -0.666226,2.4985 0.33464,1.73105 1.059636,-0.81251 1.172197,-0.0781 0.294699,1.92277 -0.542568,1.23718 -1.219108,2.11524 -2.0078,2.60588 -1.3164788,0.81895 -1.7989593,1.91625 -2.7842896,6.33221 -1.1450223,5.13168 -1.1607813,4.91124 0.3511268,4.91124 0.726364,0 1.5707078,-0.16389 1.8763198,-0.36422 0.305612,-0.20031 0.780374,-0.44711 1.055026,-0.54845 0.274653,-0.10131 0.669409,-0.88107 0.877237,-1.73275 0.564895,-2.31498 1.181697,-2.79738 3.750603,-2.93341 L 18.4,148.41065 l 0.106146,-1.37357 c 0.05838,-0.75546 0.237989,-1.56863 0.399131,-1.80701 0.161142,-0.2384 0.439378,-1.38124 0.618302,-2.53963 0.565285,-3.65978 2.541701,-5.25575 5.356237,-4.32522 1.479424,0.48911 3.113381,2.50961 3.413469,4.22098 0.107018,0.61032 -0.0159,2.33447 -0.273141,3.83146 -0.257246,1.49699 -0.394517,2.86723 -0.305046,3.04496 C 27.941409,149.91223 32,149.87041 32,149.41852 c 0,-0.20203 -0.170294,-0.86506 -0.37843,-1.47336 -0.208137,-0.60834 -0.399198,-3.13933 -0.42458,-5.62441 -0.05889,-5.76553 -0.442924,-10.11271 -1.016737,-11.50917 -0.473241,-1.15172 -1.525688,-1.83587 -2.938933,-1.91049 -0.462726,-0.0245 -2.437675,-0.8163 -4.388775,-1.75972 -1.951101,-0.94341 -3.725111,-1.7153 -3.942246,-1.7153 -1.066095,0 -5.694332,-2.77838 -8.894113,-5.33922 -1.9710983,-1.57751 -4.1555561,-3.07853 -4.854351,-3.33559 -0.7654433,-0.28156 -1.8673491,-1.21135 -2.7717896,-2.33878 -1.2150434,-1.51462 -1.53145471,-2.20038 -1.65966758,-3.597 -0.17455866,-1.90149 0.10478807,-2.39094 1.61840638,-2.8356 0.9444411,-0.27746 1.0446672,-0.17899 4.4123846,4.33522 0.8830572,1.18369 3.1204155,2.3984 8.5615022,4.6482 1.799791,0.74419 3.732469,1.69294 4.294839,2.10832 2.386413,1.7627 5.108791,2.43413 10.549996,2.602 2.855872,0.0881 5.656408,0.28057 6.223413,0.42768 1.489127,0.3864 1.917984,-0.87402 1.399137,-4.11206 -0.518864,-3.23816 -0.06209,-5.20002 1.720234,-7.38836 1.239777,-1.52221 1.511441,-1.67658 2.9506,-1.67658 3.131041,0 6.17911,1.95855 6.17911,3.97042 0,0.43087 -0.184536,1.26082 -0.410081,1.84436 -0.225545,0.58352 -0.387061,2.15533 -0.358924,3.49288 0.03679,1.74906 -0.07269,2.49029 -0.389919,2.63975 -0.242592,0.11431 -0.441076,0.45685 -0.441076,0.76122 0,0.42627 0.349214,0.50761 1.52,0.35402 1.129882,-0.14823 1.879234,-0.56441 2.919668,-1.62156 0.769818,-0.78219 2.022758,-1.99218 2.784313,-2.68891 0.761554,-0.69671 1.554495,-1.66915 1.762092,-2.16095 0.207596,-0.49179 1.335578,-2.57384 2.506627,-4.62673 2.703013,-4.7385 3.806641,-8.47207 3.217716,-10.88553 -0.457312,-1.87409 -3.210744,-5.069184 -5.681599,-6.592947 -2.093813,-1.291239 -2.99588,-2.453356 -5.433651,-7.00007 -2.14254,-3.996074 -4.053252,-9.14148 -4.407836,-11.869975 -0.168571,-1.297149 -0.08627,-1.708777 0.46387,-2.320068 0.923239,-1.025858 0.875008,-3.324933 -0.117788,-5.614753 -0.432623,-0.997818 -0.7107,-1.964975 -0.617949,-2.149237 0.09275,-0.184264 0.695525,0.19822 1.339498,0.849961 1.363361,1.379812 2.377906,1.486834 3.825039,0.403494 1.166859,-0.873521 1.330936,-0.57054 0.44771,0.826732 -1.423392,2.251824 -1.442046,2.559686 -0.30156,4.977026 1.949955,4.133069 2.159125,4.595156 2.901733,6.410339 0.406497,0.993613 1.281501,2.391312 1.944453,3.105997 0.662953,0.714683 1.481081,1.962984 1.818063,2.774 0.687792,1.655313 4.135716,5.082664 5.113175,5.082664 0.502044,0 0.636426,-0.264274 0.636426,-1.251598 0,-0.743645 0.281898,-1.620027 0.694595,-2.159399 0.382027,-0.499289 0.585777,-1.041098 0.452777,-1.204021 -0.133,-0.162922 -0.58266,0.189989 -0.999246,0.784249 -0.973614,1.388865 -1.209767,1.364399 -0.948126,-0.09823 0.208663,-1.166464 0.196472,-1.178857 -1.174574,-1.194076 L 60.32,83.747946 61.371979,83.186758 c 0.657879,-0.350952 1.216844,-1.044345 1.492058,-1.850894 0.546533,-1.601679 1.51626,-2.727279 3.372114,-3.914147 0.789883,-0.505151 1.484442,-1.226332 1.543464,-1.602628 0.135647,-0.86482 -0.511147,-0.88204 -1.274418,-0.03392 -1.201263,1.334787 -0.551718,-0.310873 0.774803,-1.963012 1.659477,-2.06682 3.664636,-3.110051 6,-3.121636 2.210055,-0.01093 3.351995,0.807775 5.091745,3.650634 1.619303,2.646044 1.765509,3.580544 1.325079,8.469485 -0.298555,3.31407 -0.495878,4.152296 -1.304299,5.540646 -1.33764,2.297208 -1.18447,2.838338 0.328397,1.160186 1.259589,-1.397204 2.329596,-1.801728 2.719078,-1.027967 0.108774,0.216094 0.585272,0.395314 1.058885,0.398264 1.665837,0.01043 2.325943,0.441727 2.522488,1.64833 0.215425,1.32251 1.586065,2.576404 4.165762,3.810956 1.05636,0.505526 1.740332,0.65241 1.86693,0.400905 0.109887,-0.218317 0.46848,-0.292219 0.796872,-0.164257 0.328392,0.127974 1.021148,-0.03659 1.539457,-0.365666 0.518308,-0.329078 1.497505,-0.773694 2.175993,-0.988008 0.678487,-0.214326 2.052719,-0.668331 3.053849,-1.008914 1.642884,-0.558904 1.935094,-0.560314 2.999084,-0.01447 0.74537,0.382386 2.17237,0.604757 3.8808,0.604757 1.48607,0 2.97436,0.179003 3.3073,0.397774 0.4133,0.271591 1.5761,0.251309 3.66527,-0.06396 l 3.05992,-0.461706 0.91337,-1.998788 c 0.50236,-1.099335 1.00883,-2.497562 1.1255,-3.107173 0.35543,-1.85719 0.98852,-0.997515 0.98852,1.342323 0,1.891621 0.0772,2.136942 0.7073,2.246965 0.38901,0.06793 1.37932,-0.241479 2.20068,-0.687574 0.82136,-0.446094 1.76307,-0.811082 2.0927,-0.811082 0.909,0 0.71641,1.137081 -0.28068,1.657122 l -0.88,0.458975 0.88,0.146747 c 0.59608,0.0994 0.88,0.378854 0.88,0.866155 0,0.536922 -0.22322,0.704715 -0.88,0.661484 -1.00877,-0.06642 -1.32812,0.542998 -0.58582,1.117896 0.34273,0.26544 0.69529,0.243058 1.10365,-0.07011 0.44552,-0.341613 0.69302,-0.345935 0.9611,-0.01683 0.4861,0.596827 0.45951,1.47729 -0.0389,1.289447 -0.99513,-0.375023 -3.44,-0.562337 -3.44,-0.263549 0,0.182489 0.37964,0.797929 0.84364,1.367633 0.93013,1.142023 0.57429,1.346748 -0.81149,0.466888 -0.96264,-0.611205 -4.7704,-0.523956 -7.23215,0.165717 -0.704,0.197236 -1.91004,0.462676 -2.68008,0.589877 -1.88052,0.310624 -2.59992,0.841271 -2.59992,1.917777 0,0.83019 -0.14763,0.90309 -1.95296,0.96417 -1.07414,0.0363 -2.47814,0.23077 -3.12,0.43204 -0.64187,0.20128 -2.10304,0.48431 -3.24704,0.62897 -2.375828,0.30042 -12.206133,2.76933 -13.500292,3.39064 -0.611152,0.2934 -1.226535,1.28394 -2.124948,3.42035 -1.704415,4.05305 -1.861452,5.12996 -1.02145,7.00474 l 0.6735,1.50316 -0.187905,-1.47338 c -0.208492,-1.63476 -0.11806,-1.75998 0.618238,-0.85595 0.44117,0.54168 0.502857,0.54441 0.502857,0.0222 0,-0.32734 -0.272942,-0.82986 -0.606538,-1.11676 -0.59037,-0.50771 -0.587674,-0.54759 0.101133,-1.49565 0.389219,-0.53573 1.439383,-1.46025 2.333699,-2.05451 3.608141,-2.39755 7.313815,-0.62695 8.452289,4.0386 0.390894,1.60191 1.046359,2.55066 2.281621,3.30249 0.433613,0.26393 0.758796,0.87266 0.821354,1.53755 0.09353,0.99413 0.0412,1.0597 -0.54058,0.67741 -0.456168,-0.29974 -0.705766,-0.30083 -0.855326,-0.004 -0.140424,0.279 -0.396891,0.21323 -0.765389,-0.19622 -0.759752,-0.84421 -1.057966,-0.3354 -0.460078,0.78498 0.362794,0.67982 0.402272,1.09885 0.153075,1.62478 -0.31152,0.65745 -0.336502,0.64918 -0.345529,-0.11443 -0.0054,-0.45272 -0.297731,-1.14314 -0.649731,-1.53427 -0.53631,-0.59592 -0.64,-0.61358 -0.64,-0.10903 0,0.33118 0.216,0.82224 0.48,1.09125 0.63097,0.64296 0.615119,2.92118 -0.0258,3.7081 -0.618694,0.75963 -1.090352,0.46684 -1.105541,-0.68631 -0.01094,-0.83025 -0.02717,-0.82593 -0.456691,0.12142 -0.424828,0.937 -0.393502,1.0152 0.679797,1.69715 1.005093,0.63861 1.164791,0.65047 1.49669,0.11124 2.37248,-3.85475 4.746435,-6.96408 5.847115,-7.6584 1.10727,-0.69849 1.29167,-0.98345 1.16457,-1.79982 -0.0831,-0.53345 -0.35107,-1.17376 -0.59558,-1.42293 -0.26934,-0.27445 -0.44456,-1.216 -0.44456,-2.38891 0,-1.06474 -0.21001,-2.43452 -0.46668,-3.04394 -0.43591,-1.035 -0.408,-1.22152 0.42325,-2.82901 1.1623,-2.24769 3.65348,-3.98811 5.20585,-3.63699 2.04869,0.46337 2.51758,1.10566 2.51758,3.44857 0,1.39071 -0.16269,2.26957 -0.48,2.5929 -0.3199,0.32598 -0.48339,1.22659 -0.49018,2.70018 -0.006,1.31801 -0.19994,2.5191 -0.48,2.97373 -0.58873,0.95569 -0.60533,2.34269 -0.035,2.92386 0.23916,0.24371 1.27545,0.79819 2.30288,1.23221 1.02743,0.43402 2.20217,1.05791 2.61053,1.38643 0.60292,0.48505 0.98652,0.51664 2.04078,0.16808 0.94012,-0.31081 1.21332,-0.55839 0.99028,-0.89738 -0.1694,-0.25749 -0.41177,-1.58993 -0.53859,-2.96099 -0.29049,-3.14048 0.36309,-5.21794 1.92856,-6.13003 1.33764,-0.77935 2.17974,-0.77008 3.56895,0.0393 1.27738,0.74423 1.70178,1.81342 1.70178,4.28721 0,0.95835 0.144,1.74247 0.32,1.74247 0.66642,0 1.6,-1.61238 1.6,-2.76336 0,-0.65547 0.36,-2.06403 0.8,-3.13013 0.44,-1.06611 0.8,-2.47309 0.8,-3.12666 0,-0.65356 0.3442,-2.47169 0.7649,-4.04029 0.42069,-1.56859 0.93056,-3.91282 1.13304,-5.209396 0.20248,-1.296568 0.51018,-3.129296 0.68379,-4.072722 0.28019,-1.522669 0.22481,-1.905636 -0.49304,-3.409612 -0.87641,-1.836156 -0.95318,-2.143699 -0.53509,-2.143699 0.15047,0 0.69047,0.811172 1.2,1.802604 0.85181,1.657462 1.01023,1.785977 1.96749,1.596084 1.13893,-0.225933 1.13898,-0.225558 0.39729,3.084149 -0.14528,0.648284 -0.27428,2.593136 -0.28666,4.321902 -0.026,3.62736 -0.24136,5.12499 -0.91985,6.39639 -0.38192,0.71568 -0.44643,1.68451 -0.30542,4.58655 0.1328,2.73297 0.0547,4.11787 -0.3037,5.38482 -0.91112,3.22095 -1.70776,7.55367 -1.44758,7.87313 0.35687,0.43815 3.2045,-0.76849 4.41284,-1.8699 0.8369,-0.76284 0.96568,-1.10025 0.84203,-2.2062 -0.0803,-0.71808 -0.40018,-1.65922 -0.71086,-2.09141 -0.39164,-0.54481 -0.48503,-1.0268 -0.30452,-1.5716 0.1432,-0.43219 0.27048,-1.55735 0.28285,-2.50035 0.0576,-4.38802 3.77817,-7.49035 6.18981,-5.16118 1.0141,0.9794 1.5474,0.99092 2.20523,0.0476 0.28313,-0.40599 0.70265,-0.81507 0.93228,-0.90905 0.29113,-0.11909 -0.16947,-1.47143 -1.52177,-4.46774 -1.0666,-2.36327 -2.12283,-4.995365 -2.34718,-5.849086 -0.22435,-0.853734 -0.76575,-2.533379 -1.20312,-3.732545 -1.61631,-4.431606 -2.20685,-9.056058 -1.15644,-9.056058 0.39333,0 0.48226,-0.284903 0.37335,-1.195997 -0.0786,-0.657798 -0.023,-1.287049 0.12368,-1.398335 0.14666,-0.111289 0.26665,-0.650907 0.26665,-1.199155 0,-1.417783 0.95237,-5.324389 1.47731,-6.059935 0.24348,-0.341157 0.44269,-0.754829 0.44269,-0.919269 0,-0.164443 0.28902,-0.592532 0.64227,-0.951312 0.35324,-0.35878 0.93391,-1.680849 1.29037,-2.937929 0.6015,-2.121224 0.62311,-2.642001 0.30054,-7.241206 -0.30607,-4.363863 -0.2882,-4.996399 0.14963,-5.297235 0.27345,-0.187897 0.49719,-0.57065 0.49719,-0.850563 0,-0.279911 0.27654,-0.816209 0.61453,-1.191771 0.58574,-0.650842 0.63072,-0.645699 0.96,0.10973 0.19001,0.43591 0.34547,1.23174 0.34547,1.768508 0,1.181744 0.29817,2.218911 0.6379,2.218911 0.13719,0 0.34661,-0.795621 0.46537,-1.768046 0.22681,-1.857007 0.81673,-2.4478 0.81673,-0.817934 0,1.356328 0.3183,2.193081 0.83424,2.193081 0.3308,0 0.44576,0.599685 0.44576,2.32538 0,1.849083 -0.2294,2.913119 -1.12,5.194834 -0.616,1.578198 -1.12,3.413694 -1.12,4.078878 0,0.665185 -0.16541,1.412524 -0.36759,1.660754 -0.39209,0.481419 -0.50414,1.399644 -0.71651,5.87157 -0.0738,1.55435 -0.30276,3.453138 -0.50876,4.219528 -0.56042,2.084925 0.13518,5.355848 1.78351,8.386684 0.73782,1.356643 1.44094,3.124688 1.56249,3.92899 0.27092,1.792641 0.90902,2.716348 2.09793,3.036952 0.49759,0.134189 1.08502,0.510745 1.30541,0.836791 0.64669,0.956722 2.61189,1.949385 3.56352,1.800015 1.09129,-0.17129 1.16567,-1.21494 0.20081,-2.817294 -0.62253,-1.033828 -0.65053,-1.327754 -0.33559,-3.522993 0.39561,-2.757574 2.25295,-6.561872 3.48426,-7.136668 2.37157,-1.107075 6.30472,0.186714 7.86461,2.587018 0.85007,1.308051 0.87426,1.471988 0.66713,4.521399 -0.1182,1.740273 -0.33783,3.257406 -0.48807,3.371407 -0.15023,0.113942 -0.27404,0.594642 -0.27512,1.068109 -0.001,0.473457 -0.21966,1.373362 -0.48572,1.999762 -0.26607,0.62642 -0.43164,1.20293 -0.36795,1.28113 0.0637,0.0782 0.73237,-0.12491 1.48596,-0.45136 0.75358,-0.32645 1.70834,-0.59355 2.12169,-0.59355 0.50859,0 0.90938,-0.37473 1.23977,-1.159166 0.26851,-0.637554 0.67935,-1.300572 0.91298,-1.473374 0.23362,-0.172814 0.76414,-1.065629 1.17893,-1.984031 0.43021,-0.952548 0.98922,-1.669822 1.30139,-1.669822 0.30098,0 0.97058,-0.486214 1.488,-1.080474 1.21802,-1.398906 1.60009,-3.905525 0.8623,-5.657281 -0.28286,-0.671592 -0.44401,-1.672443 -0.35812,-2.224115 0.0859,-0.551672 0.0399,-1.368804 -0.10211,-1.815851 -0.14205,-0.447044 -0.57475,-2.315649 -0.96155,-4.152453 -1.13578,-5.393561 -1.27078,-5.814999 -2.38926,-7.458709 -1.28299,-1.885471 -1.81253,-4.633393 -1.00042,-5.191409 0.28384,-0.195034 0.51608,-0.611032 0.51608,-0.924436 0,-1.221365 0.56385,-0.483784 0.83453,1.091666 0.39338,2.289559 0.90584,2.096763 1.02219,-0.384568 0.0928,-1.978773 0.13389,-2.062722 1.00997,-2.062722 0.85325,0 0.92771,0.129094 1.13335,1.964867 0.2322,2.072854 0.79996,2.334992 0.79996,0.369342 0,-0.635532 0.144,-1.15551 0.32,-1.15551 0.19308,0 0.32,1.641435 0.32,4.138505 0,3.685559 0.092,4.362833 0.84058,6.188165 0.46232,1.127314 1.02707,2.183317 1.25499,2.346675 0.22793,0.163359 0.50384,0.870578 0.61314,1.571598 0.10929,0.701021 0.5395,2.247009 0.956,3.435529 0.72163,2.059187 2.09529,8.395382 2.09529,9.66477 0,0.329581 -0.21708,0.986117 -0.4824,1.458959 -0.26531,0.47283 -1.23731,2.274137 -2.16,4.002895 l -1.6776,3.1432 h 2.56645 c 2.09065,0 2.73543,0.15107 3.47789,0.81486 1.13387,1.01374 1.75771,3.107 1.96124,6.58087 0.0864,1.47451 0.31417,3.04137 0.50619,3.48189 0.19202,0.44053 0.2834,1.22316 0.20305,1.73918 -0.1438,0.92364 -0.10758,0.93822 2.32955,0.93822 H 189.68 l 0.2,-1.2278 c 0.34268,-2.10374 0.22642,-3.36335 -0.59594,-6.45649 -0.43777,-1.64656 -1.01593,-4.7019 -1.2848,-6.78964 -0.26887,-2.087732 -0.72372,-5.113979 -1.01078,-6.724989 -0.45276,-2.540923 -0.46898,-3.42601 -0.12241,-6.678435 0.21973,-2.062126 0.57972,-4.19172 0.79998,-4.732429 0.72259,-1.77384 1.18398,-4.860248 1.18423,-7.921738 1.3e-4,-1.655299 0.18386,-3.776957 0.40827,-4.714793 0.35783,-1.495392 0.53191,-1.720305 1.41505,-1.828304 1.09314,-0.133678 3.41534,1.234034 3.71316,2.186949 0.23176,0.741557 -0.96566,4.060183 -1.73623,4.811938 -0.5087,0.49627 -0.61198,1.178854 -0.65397,4.321894 -0.0823,6.161313 0.50475,15.730744 1.08167,17.63164 0.28697,0.945573 0.52177,2.024794 0.52177,2.398257 0,0.37347 0.35741,1.15254 0.79424,1.73125 0.43683,0.57873 0.94589,1.40018 1.13126,1.82543 0.18536,0.42526 0.57607,0.77319 0.86825,0.77319 0.29218,0 0.93511,0.47509 1.42874,1.05576 0.81374,0.95721 0.89751,0.98371 0.89751,0.28376 0,-0.42458 -0.288,-1.07475 -0.64,-1.4448 -0.76517,-0.80442 -0.89874,-3.85675 -0.19993,-4.568831 0.24203,-0.246631 0.53539,-1.180355 0.6519,-2.074938 0.29722,-2.282144 1.11148,-3.81013 2.49528,-4.682427 1.57315,-0.991671 3.04988,-0.944625 4.73718,0.15091 2.28356,1.482667 2.70177,2.499073 2.75148,6.687086 0.041,3.45256 -0.50787,6.55798 -1.15905,6.55798 -0.1395,0 -0.55594,0.62908 -0.92541,1.39794 l -0.67177,1.39793 1.04016,1.59466 c 0.62413,0.95683 1.69206,1.94964 2.67005,2.48221 1.58873,0.86517 3.01011,2.6814 3.01011,3.8463 0,0.31836 0.23208,0.81531 0.51574,1.10435 0.44039,0.44875 0.80272,0.34226 2.48,-0.7289 1.08034,-0.68996 2.39626,-1.3026 2.92426,-1.36146 1.07629,-0.11995 1.04041,0.22223 0.66955,-6.38481 -0.14683,-2.61582 -0.0711,-3.40042 0.45728,-4.74069 1.17484,-2.97977 4.11058,-4.14721 6.28316,-2.49859 1.28892,0.97806 1.84707,2.18788 2.34592,5.08484 0.70154,4.07399 0.7174,4.76653 0.17224,7.52049 -0.60895,3.07621 -0.43024,3.71789 0.86684,3.11239 0.45056,-0.21032 0.90601,-0.27582 1.01211,-0.14555 0.4108,0.50439 0.16174,2.01303 -0.50384,3.05194 l -0.69673,1.08755 0.93673,0.80732 c 0.51521,0.44403 1.53147,1.5507 2.25836,2.45927 l 1.32163,1.65192 -0.0226,-6.14588 c -0.0124,-3.38023 0.15183,-9.13236 0.36503,-12.78249 0.3761,-6.43922 0.36772,-6.68706 -0.28174,-8.334293 -0.3745,-0.949846 -1.14588,-2.059308 -1.75109,-2.518558 -1.07463,-0.815463 -3.03286,-3.709437 -3.03286,-4.482123 0,-0.222057 -0.47668,-0.938647 -1.0593,-1.59242 -0.59488,-0.667536 -1.2272,-1.901754 -1.44226,-2.815135 -0.21574,-0.916261 -0.7188,-1.896632 -1.15208,-2.245205 -0.42302,-0.340311 -1.14253,-1.587891 -1.59892,-2.7724 -0.45639,-1.184507 -1.09255,-2.384224 -1.41369,-2.666038 -0.32114,-0.281811 -1.68815,-2.280433 -3.0378,-4.441379 -1.34964,-2.160947 -2.97368,-4.724616 -3.60897,-5.697042 -0.63529,-0.972426 -1.26934,-2.130831 -1.409,-2.574231 -0.13966,-0.443401 -2.0639,-2.565059 -4.27607,-4.714795 -2.21218,-2.149733 -4.02659,-4.129613 -4.03203,-4.39973 -0.0137,-0.681797 0.16253,-0.630445 1.74548,0.508554 2.04565,1.471941 2.05291,0.538645 0.0129,-1.65811 -1.67648,-1.805292 -2.19922,-2.877663 -1.40275,-2.877663 0.20102,0 1.14396,0.81657 2.09542,1.814599 0.95145,0.99803 1.81448,1.710767 1.91784,1.58386 0.23937,-0.293893 -0.59388,-1.857513 -2.02975,-3.808921 -1.0123,-1.375748 -1.18852,-2.339834 -0.42771,-2.339834 0.15595,0 0.95537,1.016627 1.7765,2.259171 2.2355,3.382766 2.68496,3.250964 1.2622,-0.370133 -1.6341,-4.158993 -0.61502,-4.140856 1.32623,0.0236 1.38863,2.978957 2.26074,4.373749 2.73474,4.373749 0.15497,0 0.54498,-0.753926 0.86668,-1.675389 0.63674,-1.823854 1.42694,-2.848751 1.91238,-2.480382 0.18743,0.142226 0.1302,0.671569 -0.14616,1.351733 -0.24983,0.614877 -0.5482,2.743455 -0.66306,4.730173 l -0.20883,3.612213 1.59072,1.847394 c 0.8749,1.016066 1.86895,2.295113 2.20901,2.842327 0.34006,0.547213 1.12229,1.377105 1.73829,1.844202 1.16371,0.88241 4.63709,5.080876 4.84254,5.853437 0.14232,0.535179 3.61469,3.787955 6.03746,5.655654 0.968,0.746226 2.0074,1.733553 2.30977,2.19406 0.31553,0.480544 1.09949,0.945217 1.84,1.090604 1.28958,0.253191 1.41217,0.451765 1.30275,2.110304 -0.0759,1.150015 1.11782,1.236217 1.3602,0.09822 0.22893,-1.07488 0.83611,-0.984572 2.06728,0.307474 1.40124,1.470525 1.37338,2.654147 -0.08,3.39975 -1.42437,0.730717 -1.50459,1.793367 -0.13538,1.793367 1.49877,0 2.85538,-1.852322 2.85538,-3.898769 0,-1.497746 -0.059,-1.601822 -0.90864,-1.601822 -1.10962,0 -1.61398,-1.141925 -1.41114,-3.195012 0.0789,-0.798609 -0.0134,-1.544119 -0.20962,-1.693012 -0.48491,-0.367964 -0.44272,-1.813888 0.0494,-1.69304 0.27988,0.06873 0.45174,-0.786682 0.57229,-2.848521 0.22218,-3.800113 0.8748,-5.128373 3.30158,-6.719664 1.60391,-1.051716 2.12183,-1.203485 3.59504,-1.053483 1.08326,0.110295 1.97558,0.454695 2.4076,0.929228 1.0228,1.123458 1.87479,3.881763 1.84561,5.975168 -0.0142,1.018051 0.13253,2.348722 0.32604,2.95705 0.54036,1.698702 0.42186,4.649104 -0.2519,6.271706 -0.33205,0.799682 -0.69611,2.058542 -0.80901,2.797469 l -0.20528,1.343502 1.36902,-0.214674 c 1.52613,-0.239311 2.87364,-0.971574 3.73575,-2.030078 0.31498,-0.386743 1.87223,-1.479953 3.46054,-2.429354 1.93618,-1.157342 3.05383,-2.081312 3.39156,-2.803831 0.70661,-1.511674 2.39773,-2.688528 3.74116,-2.603472 1.96385,0.124336 2.66213,-0.492928 9.07163,-8.019053 6.50548,-7.638841 6.01325,-6.680959 5.60246,-10.902288 -0.17874,-1.836804 -0.52953,-3.853022 -0.77953,-4.480483 -0.55657,-1.396859 -0.55685,-1.413007 -0.0242,-1.413007 0.58464,0 1.34119,1.127021 1.71436,2.553845 0.34177,1.306752 1.14577,1.705198 1.89672,0.939976 0.26991,-0.275033 0.89512,-1.483601 1.38935,-2.685709 0.49423,-1.202106 1.19008,-2.627122 1.54634,-3.166703 1.11285,-1.685509 1.19543,-0.479435 0.14606,2.133362 -0.5522,1.374903 -0.90895,2.616528 -0.79278,2.759164 0.11617,0.142637 1.03069,-0.855361 2.03227,-2.217772 1.22887,-1.671593 1.92803,-2.349345 2.15003,-2.084211 0.22319,0.266558 -0.17937,1.148666 -1.25189,2.743203 -0.86947,1.292668 -1.58086,2.486099 -1.58086,2.652071 0,0.72547 0.84671,0.171895 2.31326,-1.512394 1.22369,-1.405378 1.6638,-1.707229 1.95318,-1.339606 0.28777,0.36557 -0.049,0.949405 -1.46644,2.542157 -2.35606,2.64749 -2.39016,3.425242 -0.08,1.824456 1.33305,-0.923717 1.76,-1.076977 1.76,-0.631785 0,0.323279 -0.612,1.061457 -1.36,1.640393 -3.27599,2.535554 -8.64973,9.510857 -10.12044,13.136691 -0.22696,0.559525 -1.5527,2.449405 -2.9461,4.199735 -1.61285,2.02598 -2.53346,3.496797 -2.53346,4.047565 0,1.09881 -1.80728,4.020484 -3.85537,6.23264 -1.20886,1.3057 -1.58463,1.979455 -1.58463,2.84124 0,0.94445 -0.15968,1.168881 -0.97391,1.368818 -0.66393,0.163041 -1.13365,0.628848 -1.47582,1.46355 -0.7998,1.951065 -2.38926,3.760846 -3.67687,4.186552 -1.49423,0.494021 -2.31566,2.047908 -3.01923,5.711518 -0.61134,3.18333 -0.42478,10.73702 0.35392,14.32969 0.25537,1.1782 0.46602,2.89361 0.46811,3.81202 0.003,1.12242 0.14287,1.66982 0.42802,1.66982 0.56013,0 1.81578,-1.66127 1.81578,-2.40236 0,-0.32103 0.16205,-0.78264 0.36011,-1.02582 0.44678,-0.54855 -0.61922,-3.40048 -1.76652,-4.72609 -0.71206,-0.82272 -0.7675,-1.17846 -0.78037,-5.00804 -0.0128,-3.81979 0.044,-4.20678 0.77393,-5.27192 1.04073,-1.51859 3.2259,-2.78234 4.81105,-2.78234 1.55816,0 4.43953,1.68809 5.14826,3.01616 0.28197,0.52838 0.53523,1.70133 0.5628,2.60658 0.0276,0.90525 0.22126,2.03209 0.43043,2.50411 0.43758,0.98743 0.50651,3.32592 0.11426,3.87622 -0.40126,0.56293 -1.01395,3.45229 -1.01395,4.78159 0,0.71219 0.31929,1.59698 0.81171,2.24935 0.80618,1.06805 0.81764,1.07048 1.68,0.35651 0.47756,-0.39538 2.10388,-1.44764 3.61406,-2.33838 2.58053,-1.52206 2.83699,-1.78798 4.26176,-4.41939 0.8338,-1.53995 2.01718,-3.53642 2.62974,-4.43662 0.7279,-1.06973 1.03821,-1.85417 0.89574,-2.26437 -0.1199,-0.34518 -0.26496,-2.41088 -0.32237,-4.59045 -0.10303,-3.91191 -0.37222,-5.071969 -2.06265,-8.889085 -0.16368,-0.36962 -0.2148,-0.937016 -0.11358,-1.260875 0.21805,-0.697667 -1.45298,-2.073837 -2.9363,-2.418171 -1.22197,-0.283666 -3.1272,-2.394704 -2.87873,-3.189706 0.0994,-0.317365 0.18066,-0.735229 0.18066,-0.9281 0,-1.042234 4.03938,-2.259632 5.12676,-1.545115 0.55356,0.363751 1.32045,1.619962 3.68809,6.041321 0.36017,0.672583 1.36817,2.140321 2.24,3.261631 1.48342,1.907919 2.70515,4.88723 2.70515,6.59677 0,0.36964 0.30327,1.89801 0.67394,3.39635 0.81676,3.3016 0.72797,4.15295 -0.94747,9.08484 -1.3484,3.96921 -2.69388,6.66319 -5.83864,11.69039 -2.01741,3.22502 -2.70936,4.92356 -2.17191,5.33139 0.1823,0.13833 0.6448,-0.0968 1.02777,-0.52242 0.38297,-0.42566 1.48831,-1.41628 2.45631,-2.2014 0.968,-0.7851 2.44219,-2.06154 3.27597,-2.83653 1.06368,-0.98868 2.01839,-1.50084 3.2,-1.71664 1.63463,-0.29854 4.08403,-1.38513 4.08403,-1.81173 0,-0.43006 -1.05936,-2.70718 -1.52595,-3.28007 -1.14569,-1.4067 -1.6703,-4.18158 -1.79191,-9.47823 -0.0339,-1.47663 0.16457,-2.13308 1.15847,-3.83168 0.65967,-1.12737 1.19939,-2.46972 1.19939,-2.98301 0,-1.29458 0.63471,-1.81487 2.32416,-1.90515 1.56883,-0.0839 2.47584,0.53609 2.47584,1.69216 0,0.39614 0.36,1.37158 0.8,2.16767 0.44,0.79608 0.8,1.83479 0.8,2.30825 0,0.47347 0.37355,1.73062 0.83011,2.7937 0.69951,1.62877 0.83246,2.45829 0.845,5.2725 0.008,1.83681 -0.0931,4.24201 -0.22512,5.3449 l -0.24002,2.00525 1.51394,0.46807 c 0.83267,0.25743 1.59132,0.37305 1.68589,0.25693 0.0946,-0.11615 -0.13237,-1.58272 -0.50432,-3.25912 -1.44364,-6.50649 -2.04414,-10.74992 -1.84253,-13.02031 0.10781,-1.21415 0.0401,-3.8872 -0.15051,-5.9401 -0.19059,-2.052896 -0.41893,-4.79337 -0.50741,-6.089938 -0.0885,-1.296567 -0.28686,-2.887808 -0.44082,-3.536091 -0.87231,-3.67305 -0.64733,-7.302886 0.52679,-8.499302 0.41431,-0.422183 0.56691,-0.392437 0.90578,0.176568 0.37268,0.625777 0.42477,0.629124 0.60916,0.03913 0.35821,-1.146129 1.15071,0.154984 1.18596,1.947084 0.026,1.322664 0.0729,1.440584 0.25442,0.639465 0.1224,-0.540236 0.43204,-0.982248 0.68811,-0.982248 0.75075,0 0.73873,2.063587 -0.0283,4.851568 -0.65406,2.377481 -0.67801,2.799972 -0.32499,5.733262 0.7639,6.347352 1.46923,10.723392 1.815,11.260692 0.19458,0.30237 0.44689,1.16856 0.56068,1.92489 0.28344,1.88395 1.14427,5.43703 1.68023,6.93511 0.24361,0.68095 0.44293,1.42648 0.44293,1.65673 0,0.23027 0.504,1.03747 1.12,1.79381 0.616,0.75633 1.12,1.64624 1.12,1.9776 0,0.33133 0.16035,0.60243 0.35633,0.60243 0.24092,0 0.28648,-0.57199 0.14065,-1.76593 -0.15909,-1.3026 -0.0847,-1.99561 0.28367,-2.64127 0.27464,-0.48143 0.49935,-1.38409 0.49935,-2.0059 0,-1.65707 1.83746,-3.80229 3.2568,-3.80229 0.59444,0 1.41015,0.28325 1.81269,0.62943 0.40254,0.34618 0.81216,0.53089 0.91025,0.41044 0.21177,-0.26001 -0.99069,-8.23618 -1.47976,-9.81559 -0.18699,-0.60385 -0.33998,-1.48938 -0.33998,-1.96784 0,-1.921253 2.99796,-12.051328 5.26837,-17.801793 1.3264,-3.35948 2.41163,-6.455746 2.41163,-6.880592 0,-0.990038 0.50995,-2.172192 1.60512,-3.720975 0.56391,-0.797465 0.94889,-1.906315 1.0913,-3.143196 0.29142,-2.531087 0.48562,-3.286207 0.84514,-3.286207 0.16414,0 0.29844,0.47148 0.29844,1.047732 0,1.409312 0.40489,0.836942 0.80959,-1.144468 0.18128,-0.887523 0.52164,-1.69228 0.75637,-1.788349 0.34339,-0.140538 0.38131,0.381349 0.19404,2.670884 -0.29349,3.588175 0.21884,3.614357 1.57704,0.0806 1.01748,-2.647273 1.66699,-3.207135 1.34699,-1.161065 -0.10984,0.702308 -0.28521,1.807337 -0.38971,2.455621 l -0.19,1.178698 1.0947,-1.541416 c 1.41419,-1.991267 1.84203,-1.280366 0.71764,1.192422 -0.45764,1.006451 -0.75486,2.076981 -0.66048,2.378953 0.10245,0.3278 -0.11607,0.685331 -0.54229,0.88726 -0.39264,0.186019 -1.56311,1.522968 -2.60105,2.970997 -1.44201,2.011738 -2.09266,3.342372 -2.7583,5.640923 -0.47912,1.654477 -1.18725,3.855221 -1.57362,4.890543 -0.42387,1.135807 -0.8232,3.317444 -1.00683,5.500592 -0.16738,1.989997 -0.46499,4.752719 -0.66136,6.139383 -0.42635,3.010733 -0.1792,7.994693 0.4559,9.193253 0.25015,0.47208 0.65107,2.07718 0.89094,3.56686 0.28539,1.77239 0.746,3.19828 1.33266,4.12544 0.4931,0.77931 1.35428,2.16833 1.91375,3.08674 1.00271,1.646 1.628,2.04382 2.01235,1.28024 0.10785,-0.21428 -0.3326,-2.01205 -0.97878,-3.99508 -0.64619,-1.98303 -1.22785,-4.23878 -1.29257,-5.0128 -0.0647,-0.774 -0.2692,-2.95488 -0.45439,-4.84641 -0.55277,-5.64612 -0.10378,-6.654694 4.14819,-9.318048 1.12433,-0.70426 1.79966,-0.850258 3.36646,-0.72776 2.26641,0.177186 3.60372,1.130323 4.4102,3.143281 1.95394,4.876977 1.92988,4.735077 1.60045,9.438157 -0.25354,3.61975 -0.41761,4.49127 -0.94404,5.01465 -0.35044,0.34841 -0.73584,1.33398 -0.85645,2.19016 -0.12061,0.85618 -0.29979,2.05401 -0.39818,2.66184 -0.17664,1.0912 -0.16338,1.10175 1.05094,0.83548 2.57334,-0.56427 3.98552,-3.57033 3.88611,-8.27224 -0.036,-1.70389 0.20603,-5.17522 0.5379,-7.71405 0.53088,-4.06126 0.55305,-4.927087 0.18449,-7.203719 -0.39695,-2.452011 -0.38326,-2.646852 0.26122,-3.717131 0.83124,-1.380446 0.96018,-4.304497 0.18981,-4.304497 -0.26967,0 -0.60689,0.386929 -0.74937,0.859842 -0.22821,0.757442 -0.32182,0.633688 -0.78606,-1.039158 -0.32716,-1.17889 -0.45499,-2.451917 -0.3371,-3.357098 0.16197,-1.243681 0.0937,-1.488997 -0.46453,-1.668222 -0.46676,-0.149867 -0.80183,-0.832673 -1.16844,-2.381075 -0.59919,-2.530692 -0.64114,-2.582115 -3.57656,-4.385193 -2.58742,-1.589319 -3.69446,-2.801677 -2.90007,-3.175959 0.27207,-0.128186 0.93967,0.04947 1.48356,0.394798 1.16162,0.73754 1.30134,0.237098 0.34888,-1.2496 -0.352,-0.549439 -0.64,-1.363429 -0.64,-1.808867 0,-0.718967 0.12519,-0.660901 1.11521,0.517255 0.61336,0.729927 1.21306,1.206991 1.33266,1.060142 0.1196,-0.146847 -0.18526,-1.244274 -0.67746,-2.438723 -0.85523,-2.075393 -0.87019,-2.205282 -0.33734,-2.928205 0.51563,-0.699563 0.61511,-0.710195 1.32226,-0.141304 0.72074,0.579835 0.76467,0.568768 0.76467,-0.192624 0,-1.087919 0.48187,-1.385099 1.07167,-0.660929 1.1919,1.463424 3.41606,6.485814 3.83181,8.652632 0.40996,2.136638 1.71955,6.368736 2.47288,7.991396 0.57136,1.230692 3.18226,9.956191 3.70109,12.368828 0.43819,2.037674 0.48878,3.748001 0.31864,10.771411 l -0.20226,8.34911 h 1.09657 c 1.05822,0 1.10868,-0.0694 1.44308,-1.98383 0.19059,-1.09112 0.34732,-2.37295 0.3483,-2.84852 0.004,-2.00175 0.66795,-3.76989 1.71308,-4.56298 l 1.05597,-0.80129 1.73007,0.77642 c 0.95153,0.42703 1.76203,0.77641 1.80109,0.77641 0.0391,0 0.4379,0.76863 0.88629,1.70806 0.61908,1.29704 0.76569,2.0124 0.60925,2.97278 -0.17926,1.10049 -0.0464,1.46541 1.02317,2.81028 0.83276,1.04711 1.50878,1.54556 2.09612,1.54556 0.76294,0 0.89303,-0.1897 1.08453,-1.58141 0.16542,-1.20212 0.065,-1.93247 -0.41859,-3.04497 -3.13618,-7.2146 -3.00883,-6.78175 -2.77995,-9.449034 0.17364,-2.023419 0.11412,-2.619361 -0.3205,-3.209017 -0.80871,-1.097185 -0.51207,-2.53015 0.55498,-2.680974 0.67231,-0.09504 0.94452,0.08864 1.16498,0.785799 0.15822,0.500381 0.68942,2.201046 1.18044,3.77925 0.96879,3.113796 1.10799,3.088436 1.73275,-0.315608 0.59438,-3.238475 0.87377,-3.906072 1.81945,-4.347519 1.1488,-0.536279 2.54944,0.182956 3.15465,1.619924 0.5215,1.238211 0.45006,5.008081 -0.1285,6.780389 -0.61265,1.87676 -0.43771,2.37675 1.23528,3.53043 1.06665,0.73558 1.87233,1.67998 2.43008,2.84853 0.45892,0.96146 0.92871,1.74746 1.04399,1.74665 0.45085,-0.004 1.4669,-3.85148 1.59648,-6.04678 0.10111,-1.71284 -0.0933,-3.349443 -0.74669,-6.286391 -1.08475,-4.875806 -2.36682,-9.249499 -2.97069,-10.134295 -0.31026,-0.454583 -0.38864,-1.133953 -0.24932,-2.160947 0.16948,-1.249379 -0.0154,-2.052043 -1.11391,-4.837562 -0.7244,-1.836806 -1.51682,-3.612203 -1.76092,-3.945327 -0.67869,-0.926185 -2.06537,-5.735634 -2.06529,-7.16305 1.4e-4,-2.415237 -1.61993,-8.244108 -2.60557,-9.374575 -0.50297,-0.576886 -0.9145,-1.251599 -0.9145,-1.499361 0,-0.247761 -0.37306,-0.874982 -0.82903,-1.393823 -0.67035,-0.762793 -0.78891,-1.167608 -0.61943,-2.115036 0.11528,-0.644431 0.41634,-1.382361 0.66903,-1.639847 0.64934,-0.661672 0.57524,-1.341007 -0.34057,-3.122236 -1.02171,-1.987205 -1.00599,-2.357396 0.10013,-2.357396 0.57144,0 1.19716,0.394547 1.71354,1.080473 1.83855,2.442208 3.549,5.680005 3.83442,7.25838 0.1671,0.924045 0.74323,2.917716 1.28028,4.430378 1.10763,3.119782 1.0565,2.992763 2.87457,7.141057 2.0647,4.711056 2.54271,5.983088 3.06199,8.148289 0.3412,1.422692 0.88474,2.464544 1.88715,3.617252 0.77436,0.890462 1.40792,1.847355 1.40792,2.126427 0,0.934706 1.5947,3.861066 2.24139,4.113076 0.35161,0.13702 0.7882,0.590763 0.97021,1.008317 0.182,0.417554 0.53371,0.75919 0.78157,0.75919 0.24785,0 0.71079,0.545158 1.02874,1.211463 0.4632,0.97069 2.58945,2.659542 2.80952,2.231564 0.2085,-0.405484 0.79399,-3.613423 0.97681,-5.352047 0.23711,-2.25491 0.47327,-2.634853 2.7315,-4.394596 1.33647,-1.041452 1.60122,-1.11005 3.1351,-0.812337 1.82987,0.355159 3.29122,1.705692 3.81727,3.527793 0.81588,2.826029 1.02789,3.987649 1.02789,5.632 0,1.756212 -1.1468,6.126058 -2.16079,8.233669 -0.7437,1.545789 -0.133,2.295269 1.87024,2.295269 0.96019,0 1.98708,0.300679 2.69556,0.789259 1.12878,0.77842 1.16951,0.77922 2.96973,0.0582 1.00389,-0.402052 2.57881,-0.950931 3.49981,-1.219736 1.29569,-0.378166 2.12452,-0.991359 3.66343,-2.71033 3.98855,-4.455205 8.83162,-10.563409 9.05225,-11.416916 0.34862,-1.348649 1.97167,-3.420077 3.1283,-3.992513 0.57281,-0.283493 1.48706,-0.924098 2.03168,-1.423564 1.17407,-1.076749 1.32847,-1.093705 2.64063,-0.289994 1.18912,0.728353 1.33905,1.951252 0.28916,2.358509 -1.01114,0.392224 -1.65438,1.671131 -1.75354,3.486436 -0.0998,1.826888 -1.52796,3.890378 -3.14647,4.546222 -1.00568,0.407516 -2.32694,2.383168 -4.29999,6.429704 -2.51211,5.152092 -4.75941,7.848482 -8.98672,10.782592 -1.3053,0.90598 -3.50833,2.62687 -4.89562,3.82416 -1.38728,1.19732 -2.93205,2.27755 -3.43282,2.40051 -1.19981,0.29464 -1.37115,0.618 -2.04602,3.86143 -0.31475,1.51267 -1.43699,6.4632 -2.49387,11.00119 -1.64846,7.07806 -1.92884,8.75352 -1.97249,11.78698 -0.028,1.94485 -0.14696,3.8897 -0.26437,4.32189 -0.11741,0.43219 -0.0728,1.051 0.0992,1.37515 0.27795,0.52387 0.3477,0.52387 0.62779,0 0.1733,-0.32415 0.3173,-1.13782 0.32,-1.80816 0.007,-1.86 1.24391,-3.74007 3.3631,-5.11381 1.04192,-0.67541 1.94358,-1.40913 2.00367,-1.6305 0.0601,-0.22136 -0.25774,-0.8887 -0.7063,-1.48297 -0.93526,-1.23906 -0.97709,-1.83846 -0.35492,-5.08624 0.81383,-4.24831 3.44589,-5.84343 5.65076,-3.42459 0.9525,1.04494 1.0097,1.27506 1.16885,4.70207 l 0.16733,3.60338 0.9962,0.37754 c 0.54792,0.20763 1.46766,0.49355 2.04388,0.63535 1.54472,0.38015 2.89322,1.94762 3.14248,3.65279 0.35065,2.3988 0.62209,2.62232 1.05083,0.86531 0.40685,-1.6673 1.82833,-3.14371 3.02965,-3.14669 1.61027,-0.004 3.08937,2.0645 3.08937,4.32043 0,0.62794 0.16311,1.58128 0.36248,2.11851 0.29747,0.80161 0.24559,1.25211 -0.28926,2.51199 -0.77627,1.82861 -0.58216,2.3785 0.89209,2.52717 1.07607,0.10854 1.1053,0.0719 1.32381,-1.65708 0.4377,-3.46346 0.28843,-7.50446 -0.37883,-10.25543 -0.35735,-1.47325 -0.7737,-2.7727 -0.92522,-2.88769 -0.15153,-0.11492 -0.94374,0.15387 -1.76046,0.59745 -1.88714,1.02495 -5.43984,1.41707 -7.02377,0.77524 -0.65093,-0.26376 -1.40472,-0.89411 -1.67509,-1.40076 -1.14751,-2.15027 -3.00575,-11.62956 -3.00575,-15.33296 0,-1.91414 -0.13234,-2.56016 -0.64,-3.12426 -0.83165,-0.92408 -0.81066,-1.37515 0.064,-1.37515 0.54756,0 0.61867,-0.10473 0.32,-0.47147 -0.53393,-0.65557 -0.48009,-1.49302 0.096,-1.49302 0.264,0 0.48,-0.33329 0.48,-0.74061 0,-0.7845 1.50772,-2.25079 1.86776,-1.81643 0.11673,0.14082 0.36828,0.81502 0.55899,1.49822 l 0.34676,1.24216 0.45756,-1.17214 c 0.47149,-1.20785 1.45199,-1.63002 1.35351,-0.5828 -0.0305,0.32414 -0.24144,1.61321 -0.4688,2.8646 -0.32847,1.80783 -0.33242,2.4344 -0.0192,3.05015 0.21679,0.42619 0.48359,1.8776 0.5929,3.22535 0.10931,1.34774 0.34069,2.78903 0.51418,3.20286 0.17348,0.41382 0.3036,1.47605 0.28914,2.36049 -0.042,2.56992 0.26105,2.87645 2.0892,2.11299 0.84592,-0.35326 1.93142,-0.74795 2.41222,-0.87706 0.5362,-0.14401 1.06793,-0.69483 1.37533,-1.42467 0.59971,-1.42392 1.57786,-1.94193 3.66691,-1.94193 2.16608,0 4.80358,-0.79968 4.80358,-1.45645 0,-0.29463 -0.20495,-0.92727 -0.45545,-1.4059 -0.2505,-0.47859 -0.60742,-1.89882 -0.79315,-3.15602 -0.27708,-1.87551 -0.25189,-2.44663 0.14031,-3.18158 0.26291,-0.49264 0.43983,-1.30184 0.39315,-1.79821 -0.0674,-0.71693 0.37257,-1.30616 2.14001,-2.86587 1.25859,-1.11068 2.27714,-1.77085 2.34523,-1.52007 0.0662,0.24384 0.68971,1.28555 1.38558,2.3149 1.59776,2.36348 1.69819,2.88999 1.46144,7.66141 l -0.19422,3.91433 0.7654,-0.23587 c 0.47592,-0.14666 0.94706,-0.0128 1.2457,0.35384 0.26416,0.32433 0.77841,0.58969 1.14278,0.58969 0.95181,0 6.32801,-3.46264 6.59773,-4.2494 0.18919,-0.55186 0.59956,-10.22393 0.54486,-12.84172 -0.009,-0.43219 -0.31859,-2.0196 -0.6879,-3.52758 -0.73877,-3.016603 -0.85105,-4.73711 -0.33471,-5.128929 0.18674,-0.141702 0.49266,0.251578 0.68672,0.88282 0.28896,0.939974 0.5428,1.145081 1.45651,1.176881 0.6086,0.02124 1.22577,0.188089 1.37149,0.370909 0.14572,0.182822 0.45054,1.791049 0.67738,3.573829 0.25325,1.99039 0.56153,3.24142 0.79876,3.24142 0.97724,0 1.0172,14.07974 0.0463,16.30532 -0.65467,1.50065 -4.25128,4.85484 -7.49838,6.99295 l -2.51552,1.65639 -0.0124,3.53333 c -0.007,1.94332 -0.13297,4.44188 -0.28036,5.55238 -0.14739,1.11048 -0.16363,5.26539 -0.0361,9.23314 l 0.2319,7.21406 h 2.36847 c 2.26277,0 2.36846,-0.0406 2.36846,-0.90985 0,-1.22409 -0.55769,-2.42979 -1.12388,-2.42979 -0.75507,0 -1.53715,-1.82654 -1.30411,-3.04571 0.11352,-0.59384 0.19486,-2.26438 0.18075,-3.71229 -0.0459,-4.7096 1.23537,-6.40335 4.64235,-6.13699 1.75822,0.13746 2.22705,0.33873 3.08094,1.32265 0.55393,0.63827 1.27475,1.88856 1.60182,2.77842 0.32708,0.88986 0.81236,1.83973 1.0784,2.11084 0.68436,0.69734 0.59995,2.50316 -0.15627,3.34344 -0.73743,0.81938 -0.861,3.10002 -0.25626,4.72964 0.41283,1.11247 0.27523,1.10117 4.30131,0.35336 0.93815,-0.17426 1.54734,-0.0673 2.08635,0.36635 0.41872,0.33685 1.57724,0.73021 2.57448,0.87411 1.70126,0.24551 1.85941,0.19564 2.56243,-0.80784 0.43532,-0.62141 1.1142,-1.09555 1.62025,-1.13162 1.07348,-0.0766 1.07919,-0.28287 0.0602,-2.17346 -0.66501,-1.23382 -1.15861,-1.63428 -2.73821,-2.2215 -2.92072,-1.08579 -4.08815,-3.51171 -2.25121,-4.67801 0.50563,-0.32105 0.99238,-0.92671 1.08167,-1.34596 0.12496,-0.58669 0.44754,-0.76414 1.40067,-0.77051 1.71871,-0.011 2.45043,0.69052 3.91568,3.75674 0.69801,1.46068 1.80395,3.27461 2.45762,4.03094 0.65368,0.75632 1.81773,2.55534 2.58677,3.99779 1.31286,2.46248 1.39826,2.78986 1.39826,5.36033 0,3.14541 -0.0197,3.1686 -3.01437,3.55781 -1.04191,0.13542 -1.94758,0.44389 -2.0126,0.68549 -0.065,0.24164 1.03945,1.17879 2.45437,2.08262 L 480,168.29186 v 9.60613 9.60615 H 240 0 Z m 13.398088,-14.4219 C 12.342875,162.01031 10.56,161.65441 10.56,163.74898 c 0,0.73537 0.381039,1.21911 1.68,2.13275 1.98583,1.39675 2.312286,0.95524 1.158088,-1.56622 z M 82.64,154.08356 c 0.339143,-0.51399 0.56,-1.51434 0.56,-2.53645 0,-1.49431 -0.07335,-1.66419 -0.64,-1.48225 -0.47092,0.15119 -0.64,0.53592 -0.64,1.45624 0,1.47848 -0.490348,2.19369 -1.504,2.19369 -0.563102,0 -0.736,0.22103 -0.736,0.94087 0,0.88434 0.0721,0.92092 1.2,0.60876 0.66,-0.18268 1.452,-0.71407 1.76,-1.18086 z m -4.24,-4.12713 c 0,-1.40848 0.554494,-2.52803 1.252076,-2.52803 0.711465,0 1.443674,-0.98404 1.156587,-1.55438 -0.353959,-0.70319 -1.694853,-0.45037 -2.5823,0.48687 -0.622307,0.65723 -0.894801,1.39237 -1.019461,2.7503 -0.155554,1.69448 -0.111719,1.85331 0.511481,1.85331 0.518382,0 0.681617,-0.24142 0.681617,-1.00807 z m -27.52,-0.93874 c -2.422269,-1.1862 -3.48968,-1.35766 -3.726894,-0.59867 -0.30105,0.96325 0.242563,1.20359 2.841935,1.2565 l 2.324959,0.0474 z m 127.83042,-1.36896 c -0.30655,-0.98556 -0.68181,-1.79192 -0.83389,-1.79192 -0.3755,0 -0.36877,0.037 0.39021,2.14364 0.83991,2.33132 1.19152,2.05257 0.44368,-0.35172 z m -80.769332,-0.48055 1.287366,-1.04601 -1.193435,-1.50062 c -0.656388,-0.82533 -1.219301,-1.45966 -1.250917,-1.4096 -0.135244,0.21413 -0.390715,5.00225 -0.266896,5.00225 0.07508,0 0.71583,-0.47071 1.423882,-1.04602 z m 201.048902,-2.57114 c 0.10154,-0.47678 0.10656,-0.96271 0.0112,-1.07985 -0.25089,-0.30806 -1.09271,1.21296 -0.892,1.61171 0.29916,0.59433 0.69143,0.35747 0.88085,-0.53186 z m -62.304,-0.21361 c 0.77515,-1.22091 2.03401,-4.46285 2.03401,-5.2382 0,-1.15588 -0.88404,-0.89485 -1.44,0.42518 -0.27304,0.64829 -0.70874,1.1787 -0.96822,1.1787 -0.35852,0 -0.47178,0.51878 -0.47178,2.16095 0,2.3034 0.15149,2.56724 0.84599,1.47337 z m 24.48201,-0.29468 c 0,-0.20529 -0.1548,-0.4366 -0.344,-0.51402 -0.1892,-0.0775 -0.344,0.15387 -0.344,0.51402 0,0.36018 0.1548,0.59149 0.344,0.51405 0.1892,-0.0775 0.344,-0.30875 0.344,-0.51405 z m 23.44405,-0.88401 c -0.11932,-0.81036 -0.27768,-1.55666 -0.3519,-1.65845 -0.25578,-0.35078 -0.73036,0.97331 -0.73525,2.05134 -0.004,0.8285 0.14775,1.08047 0.6496,1.08047 0.58155,0 0.63032,-0.16421 0.43755,-1.47336 z m 8.34795,0.57967 c 0.528,-0.22227 1.14993,-0.46486 1.38206,-0.53908 0.47056,-0.15045 0.32275,-1.0616 -0.53243,-3.28202 -0.42913,-1.1142 -0.73469,-1.39921 -1.61032,-1.50199 -0.59438,-0.0698 -1.20088,0.0207 -1.34777,0.20109 -0.1469,0.18036 -0.1791,1.61647 -0.0716,3.19135 0.16543,2.42273 0.27436,2.82275 0.70778,2.5991 0.28174,-0.14537 0.94425,-0.44618 1.47225,-0.66845 z m -115.4614,-0.35866 c -0.10216,-0.31343 -0.17798,-0.22033 -0.19334,0.23737 -0.0139,0.41418 0.0617,0.64624 0.16807,0.51569 0.10634,-0.13058 0.11771,-0.46945 0.0253,-0.75306 z m 176.26872,-1.38474 c 0.21351,-0.88786 0.67507,-2.11634 1.02569,-2.73 0.56574,-0.99016 0.85499,-2.44662 1.52051,-7.65603 0.17363,-1.35909 -0.31547,-3.47866 -0.80272,-3.47866 -0.40398,0 -1.2708,4.51326 -1.2708,6.61667 0,1.12572 -0.30624,3.05896 -0.68054,4.29612 -0.88892,2.93813 -1.14065,4.95922 -0.58957,4.73367 0.22507,-0.092 0.58392,-0.89391 0.79743,-1.78177 z m -239.21098,0.78174 c 0.74042,-0.7784 0.88103,-3.36148 0.2723,-5.00189 -0.48845,-1.31623 -0.79217,-1.26388 -1.03232,0.17796 -0.10798,0.64827 -0.28439,1.70685 -0.39204,2.35237 -0.18727,1.12304 0.0431,3.14822 0.35816,3.14822 0.0826,0 0.43989,-0.3045 0.7939,-0.67666 z m 29.88788,-5.70796 c -0.32233,-1.32435 -0.62926,-0.67048 -0.55328,1.1787 0.10068,2.45056 0.12646,2.50148 0.4476,0.88403 0.15016,-0.75634 0.19772,-1.68455 0.10568,-2.06273 z M 328.32,136.84331 c 0,-1.93209 -0.11203,-3.59791 -0.24895,-3.70182 -0.13692,-0.10386 -0.55337,0.10671 -0.92545,0.46794 -1.16762,1.13369 -2.21547,4.38939 -1.41273,4.38939 0.16109,0 0.70062,0.53041 1.19897,1.1787 0.49834,0.64827 1.01455,1.17869 1.14712,1.17869 0.13257,0 0.24104,-1.5808 0.24104,-3.5129 z m -264.083199,2.03953 c 0.0048,-0.59426 0.173519,-2.14131 0.375021,-3.43786 0.201502,-1.29658 0.45115,-3.27146 0.554772,-4.38864 l 0.188406,-2.03126 -1.280849,-0.8023 c -0.704467,-0.44127 -1.71284,-1.52353 -2.240829,-2.40505 -0.846059,-1.41254 -0.927263,-1.77567 -0.684285,-3.05994 0.344556,-1.82116 0.377156,-7.15424 0.04373,-7.15424 -0.135977,0 -0.529317,0.66301 -0.87409,1.47337 -1.051339,2.47109 -9.308732,11.88521 -10.424837,11.88521 -0.137893,0 -0.342122,0.35362 -0.453842,0.7858 -0.11172,0.43219 -0.401259,0.7858 -0.643419,0.7858 -1.465104,0 -2.018447,5.27217 -0.759578,7.23716 0.522954,0.81629 0.90523,1.02949 1.68,0.93702 l 1.002999,-0.11975 0.03068,-3.53609 c 0.04102,-4.72783 -0.03872,-4.39061 1.417915,-5.99616 1.671206,-1.84204 3.287817,-2.55122 4.429995,-1.94335 2.57065,1.36813 3.346132,2.90373 4.106209,8.13102 0.192948,1.32695 0.456187,1.88068 1.064155,2.23845 0.444285,0.26145 1.153125,0.9267 1.5752,1.47832 0.422075,0.55163 0.793641,1.00296 0.825702,1.00296 0.03206,0 0.06219,-0.48622 0.06695,-1.08047 z m 18.652687,-6.12754 c -0.335025,-2.68832 -1.567638,-7.32926 -1.946624,-7.32926 -0.09922,0 -0.509233,1.34423 -0.911145,2.98718 l -0.73075,2.98719 1.455565,2.61164 c 0.800561,1.43639 1.637425,3.14204 1.859698,3.79032 l 0.404133,1.1787 0.109713,-1.70743 c 0.06034,-0.93907 -0.04792,-2.97233 -0.24059,-4.51834 z M 381.44,134.83244 c 0,-0.43851 -0.21855,-0.76261 -0.51424,-0.76261 -0.33744,0 -0.44746,0.21365 -0.32,0.62149 0.10683,0.34181 0.19424,0.79426 0.19424,1.00542 0,0.21118 0.144,0.27469 0.32,0.14112 0.176,-0.13354 0.32,-0.58599 0.32,-1.00542 z m -250.00867,-1.33117 c 0.1689,-0.15386 -0.60226,-2.95981 -0.86909,-3.16229 -0.16174,-0.12278 -0.82011,0.0467 -1.46306,0.37656 -0.8454,0.43369 -1.11504,0.77234 -0.97409,1.22333 0.1072,0.34299 0.19491,0.95939 0.19491,1.36977 0,0.66251 0.17041,0.71876 1.52,0.50187 0.836,-0.13437 1.5521,-0.27352 1.59133,-0.30924 z m 57.64607,-3.10098 c -1.28337,-1.29283 -1.43103,-2.41534 -0.45483,-3.4575 0.64073,-0.68401 0.81743,-1.23954 0.81743,-2.56985 0,-0.93346 -0.11648,-1.69719 -0.25884,-1.69719 -0.65424,0 -1.38995,1.12392 -1.5494,2.36697 -0.0963,0.75107 -0.3049,1.66335 -0.46346,2.02731 -0.15857,0.36397 -0.2883,0.85018 -0.2883,1.08048 0,0.61123 2.57504,3.67486 2.82667,3.363 0.11733,-0.14544 -0.16584,-0.64638 -0.62927,-1.11322 z m 21.47242,0.62456 c -0.0142,-0.96133 -0.75803,-2.06272 -1.39302,-2.06272 -0.47459,0 -1.1568,1.40534 -1.1568,2.38297 0,0.20205 0.576,0.36734 1.28,0.36734 1.00959,0 1.27785,-0.14526 1.26982,-0.68759 z m -38.87831,-8.44733 c 0.33522,-0.7023 1.32634,-2.09438 2.20249,-3.09349 l 1.593,-1.81657 -1.07409,-2.50532 c -0.83299,-1.94295 -1.07845,-2.99874 -1.0935,-4.70338 l -0.0194,-2.19805 -2.48,3.09777 c -1.364,1.70375 -2.48,3.25558 -2.48,3.44849 0,0.1929 0.28479,0.46171 0.63286,0.59735 0.80558,0.31393 1.33171,2.63765 1.34728,5.95037 0.0134,2.84538 0.42268,3.21037 1.37137,1.22283 z m 154.73007,0.7858 c 0.002,-0.7287 -1.05724,-4.22367 -1.28051,-4.22367 -0.17913,0 -0.63017,1.3888 -1.108,3.41162 -0.17497,0.74069 -0.0587,0.8796 0.85215,1.0176 0.58013,0.0879 1.16278,0.18811 1.29478,0.2227 0.132,0.0346 0.24071,-0.15814 0.24158,-0.42825 z M 143.68,121.26482 c 0,-1.04034 -0.28965,-1.82639 -1.10282,-2.9928 -0.60654,-0.87006 -1.18254,-2.0916 -1.28,-2.71453 -0.0975,-0.62295 -0.26062,-1.66305 -0.36261,-2.31134 -0.31302,-1.98978 -0.67586,-1.30651 -0.52131,0.98166 0.0947,1.40184 0.004,2.36966 -0.25706,2.75651 -0.33832,0.50051 -0.16483,0.89274 1.08122,2.44454 0.8163,1.01659 1.56553,2.16301 1.66495,2.54763 0.30927,1.19638 0.77763,0.76777 0.77763,-0.71167 z M 66.228942,86.110732 c -0.282794,-0.648781 -0.445197,-0.717805 -0.811258,-0.344792 -0.690302,0.703412 -0.551881,1.155958 0.353575,1.155958 0.720555,0 0.771727,-0.09069 0.457683,-0.811166 z m -0.638209,-6.245676 c 0.258903,-0.201035 0.363474,-0.497213 0.232381,-0.658171 -0.131094,-0.160957 -0.481781,0.0063 -0.779304,0.371538 -0.578363,0.710118 -0.23214,0.891569 0.546923,0.286633 z M 48.065662,63.551931 c -1.021813,-1.055671 -2.172791,-4.089287 -1.892548,-4.988161 0.09474,-0.303886 0.321568,0.01068 0.545804,0.756946 0.598886,1.993096 1.054068,1.570893 0.795454,-0.737819 -0.146283,-1.305898 -0.113546,-1.929647 0.09305,-1.772879 0.175302,0.133025 0.415668,1.035538 0.534145,2.005584 0.378948,3.102685 1.046909,2.40331 0.830955,-0.870034 -0.03208,-0.486212 0.06628,-0.884022 0.218571,-0.884022 0.395795,0 1.119088,4.297731 0.994132,5.907033 -0.133949,1.725135 -0.829188,1.916481 -2.119561,0.583352 z M 52.48,64.214584 c 0,-0.207644 0.232609,-0.61456 0.516909,-0.904259 0.447211,-0.455705 0.501145,-0.42685 0.4,0.214008 C 53.276383,64.287982 52.48,64.887501 52.48,64.214584 Z"
       id="path1" />
  </g>
</svg>
