<?xml version="1.0" encoding="UTF-8" standalone="no"?>
<svg xmlns="http://www.w3.org/2000/svg" viewBox="0 0 1380 791">
<path d="M538,721 537,722 536,722 535,723 535,727 534,728 533,727 528,727 527,726 525,726 524,725 523,725 522,724 521,724 519,726 519,727 518,728 518,730 517,731 517,733 516,734 516,737 515,738 515,745 516,746 517,745 518,746 582,746 583,745 582,744 582,742 581,741 581,740 580,739 580,738 578,736 578,735 577,734 576,734 575,733 568,733 567,732 561,732 560,731 554,731 553,730 552,730 550,728 550,727 549,726 549,725 547,723 547,722 545,722 544,721 Z" fill="black" stroke="none"/>
<path d="M430,721 429,722 427,722 426,723 426,725 425,726 425,728 420,733 419,733 418,734 417,734 416,735 415,735 412,738 412,740 411,741 411,742 410,743 410,746 452,746 452,739 451,738 451,735 450,734 450,732 449,731 449,729 448,728 448,726 446,724 445,725 444,725 442,723 442,722 440,722 439,721 Z" fill="black" stroke="none"/>
<path d="M233,369 231,371 231,373 232,374 232,376 233,377 233,378 234,379 234,380 236,380 237,379 239,379 240,378 241,378 242,377 243,377 243,373 242,372 240,372 239,373 238,373 236,371 236,370 235,369 Z" fill="black" stroke="none"/>
<path d="M299,348 298,349 298,351 299,352 300,352 304,356 304,357 303,358 302,358 299,355 298,355 297,354 295,354 294,353 293,353 292,354 292,356 293,356 295,358 294,359 293,359 292,358 291,359 289,359 287,357 287,356 283,356 282,357 282,359 283,360 283,362 284,363 284,364 285,365 285,366 286,367 287,366 288,366 289,365 292,365 293,366 294,366 297,369 297,370 296,371 295,370 294,370 292,368 289,368 288,369 289,370 289,371 295,377 296,377 297,378 298,378 299,377 300,377 300,376 301,375 302,375 307,370 307,369 309,367 310,367 310,364 311,363 311,362 312,361 312,360 311,359 311,357 310,356 310,355 306,351 305,351 304,350 303,350 301,348 Z" fill="black" stroke="none"/>
<path d="M214,345 214,346 213,347 213,349 214,350 214,351 215,352 215,353 216,354 216,355 217,356 218,356 219,355 221,355 223,353 225,353 226,352 226,349 224,347 222,347 221,348 220,348 219,347 219,346 218,345 Z" fill="black" stroke="none"/>
<path d="M996,342 997,343 997,348 998,349 998,353 999,354 999,359 1000,360 1000,364 1001,365 1001,370 1002,371 1002,375 1003,376 1003,381 1004,382 1005,382 1005,380 1004,379 1004,374 1003,373 1003,369 1002,368 1002,363 1001,362 1001,358 1000,357 1000,353 999,352 999,347 998,346 998,342 Z" fill="black" stroke="none"/>
<path d="M836,335 Z" fill="black" stroke="none"/>
<path d="M834,334 Z" fill="black" stroke="none"/>
<path d="M1010,332 1009,333 1006,333 1005,334 1004,334 1003,335 1002,335 1001,336 1000,336 999,337 997,337 997,338 1012,338 1013,339 1016,339 1017,340 1019,340 1020,341 1021,341 1022,342 1023,342 1026,345 1028,345 1028,344 1027,343 1026,343 1025,342 1024,342 1022,340 1021,340 1020,339 1018,339 1017,338 1015,338 1014,337 1006,337 1005,336 1006,335 1007,335 1008,334 1011,334 1012,333 1019,333 1020,334 1023,334 1023,333 1021,333 1020,332 Z" fill="black" stroke="none"/>
<path d="M304,303 303,304 303,307 304,308 304,309 305,310 305,312 306,313 306,314 308,314 309,313 310,313 311,312 313,312 315,310 315,307 314,306 311,306 310,307 308,305 308,304 307,303 Z" fill="black" stroke="none"/>
<path d="M221,280 219,282 219,284 220,285 220,286 221,287 221,288 222,289 222,290 223,291 225,291 226,290 227,290 228,289 229,289 230,288 231,288 232,287 232,284 231,283 230,283 229,282 228,283 226,283 225,282 225,281 224,281 223,280 Z" fill="black" stroke="none"/>
<path d="M501,267 Z" fill="black" stroke="none"/>
<path d="M1214,266 1213,267 1213,271 1212,272 1212,279 1211,280 1211,285 1210,286 1210,293 1209,294 1209,297 1210,297 1210,294 1211,293 1211,287 1212,286 1212,280 1213,279 1213,273 1214,272 Z" fill="black" stroke="none"/>
<path d="M243,265 242,266 242,269 243,270 243,271 244,272 244,273 245,274 245,275 246,276 247,275 249,275 250,274 251,274 252,273 253,273 255,271 255,269 253,267 248,267 247,266 247,265 Z" fill="black" stroke="none"/>
<path d="M501,254 500,255 499,255 500,255 501,256 501,265 Z" fill="black" stroke="none"/>
<path d="M938,240 Z" fill="black" stroke="none"/>
<path d="M924,228 Z" fill="black" stroke="none"/>
<path d="M947,227 Z" fill="black" stroke="none"/>
<path d="M864,226 Z" fill="black" stroke="none"/>
<path d="M879,225 878,226 877,226 874,229 874,246 877,249 877,250 878,250 881,253 882,253 883,254 884,254 885,255 886,255 887,256 888,256 889,257 892,257 892,256 895,253 896,253 897,252 900,252 901,251 902,251 903,252 905,252 907,254 908,254 908,253 907,252 907,249 906,248 906,245 905,244 905,243 904,242 904,240 903,239 903,238 902,237 902,236 900,234 900,233 896,229 895,229 893,227 892,227 891,226 889,226 888,225 Z" fill="black" stroke="none"/>
<path d="M931,222 930,223 928,223 927,224 926,224 925,225 925,226 928,229 928,230 930,232 930,233 933,236 933,237 934,238 934,239 935,240 935,239 937,237 937,236 938,235 938,234 941,231 941,230 942,229 942,226 939,223 937,223 936,222 Z" fill="black" stroke="none"/>
<path d="M442,218 441,219 440,219 438,221 437,221 436,222 435,222 434,223 433,223 432,224 431,224 430,225 429,225 427,227 426,227 425,228 424,228 423,229 422,229 421,230 420,230 419,231 418,231 417,232 416,232 414,234 413,234 412,235 411,235 410,236 409,236 408,237 407,237 405,239 404,239 402,241 401,241 399,243 398,243 396,245 395,245 392,248 391,248 387,252 386,252 377,261 377,262 376,263 376,264 375,265 375,266 374,267 374,269 373,270 373,273 372,274 372,276 371,277 371,280 370,281 370,284 369,285 369,288 368,289 368,293 367,294 367,298 366,299 366,303 365,304 365,309 364,310 364,314 363,315 363,321 362,322 362,327 361,328 361,334 360,335 360,342 359,343 359,351 358,352 358,366 361,369 362,369 366,373 367,373 369,375 368,376 368,379 369,380 369,382 370,383 370,384 371,385 371,386 372,387 372,389 373,390 373,391 374,392 374,394 375,395 375,396 376,397 376,398 377,399 377,401 378,402 378,403 379,404 379,405 380,406 380,408 381,409 381,410 382,411 382,412 383,413 383,415 384,416 384,417 385,418 385,420 386,421 386,422 387,423 387,424 388,425 388,426 389,427 389,429 390,430 390,431 391,432 391,434 392,435 392,436 393,437 393,439 394,440 394,441 395,442 396,441 397,441 398,440 399,440 400,439 401,440 401,457 400,458 401,459 400,460 400,461 403,461 404,462 411,462 412,463 417,463 418,464 418,474 417,475 417,500 416,501 416,528 415,529 415,556 414,557 414,584 413,585 413,612 412,613 412,639 411,640 411,671 410,672 410,696 409,697 409,715 426,715 427,716 446,716 447,715 459,715 460,714 460,700 461,699 461,685 462,684 462,670 463,669 463,655 464,654 464,640 465,639 465,625 466,624 466,608 467,607 467,595 468,594 468,580 469,579 469,565 470,564 470,549 471,548 471,534 472,533 472,519 473,518 473,504 474,503 474,488 475,487 475,472 476,471 478,473 478,479 479,480 479,488 480,489 480,496 481,497 481,504 482,505 482,513 483,514 483,521 484,522 484,529 485,530 485,537 486,538 486,546 487,547 487,553 488,554 488,562 489,563 489,570 490,571 490,578 491,579 491,586 492,587 492,594 493,595 493,603 494,604 494,610 495,611 495,618 496,619 496,627 497,628 497,635 498,636 498,643 499,644 499,652 500,653 500,659 501,660 501,667 502,668 502,676 503,677 503,684 504,685 504,692 505,693 505,700 506,701 506,708 507,709 507,715 519,715 520,716 530,716 531,715 534,715 535,716 538,716 539,715 559,715 559,714 558,713 558,704 557,703 557,693 556,692 556,683 555,682 555,672 554,671 554,662 553,661 553,652 552,651 552,642 551,641 551,632 550,631 550,621 549,620 549,612 548,611 548,601 547,600 547,592 546,591 546,581 545,580 545,571 544,570 544,560 543,559 543,550 542,549 542,540 541,539 541,530 540,529 540,520 539,519 539,509 538,508 538,499 537,498 537,489 536,488 536,479 535,478 535,469 534,468 534,466 536,464 543,464 544,463 547,463 547,443 546,442 546,419 545,418 545,396 544,395 544,392 545,391 546,391 548,393 549,393 550,394 551,394 552,395 554,395 555,396 564,396 565,395 567,395 568,394 569,394 570,393 571,393 573,391 574,391 578,387 578,386 579,385 579,382 580,381 580,354 579,353 579,350 582,347 584,347 585,346 586,346 588,344 587,343 587,342 586,341 586,339 585,338 585,337 584,336 584,335 582,333 582,331 581,330 581,329 580,328 580,327 579,326 579,324 578,323 578,322 577,321 577,320 576,319 576,318 575,317 575,315 574,314 574,310 573,309 573,305 572,304 572,299 571,298 571,294 570,293 570,290 569,289 569,285 568,284 568,280 567,279 567,276 566,275 566,272 565,271 565,268 564,267 564,264 563,263 563,261 561,259 561,258 560,257 560,256 550,246 549,246 544,241 543,241 540,238 539,238 537,236 536,236 534,234 533,234 531,232 530,232 529,231 528,231 526,229 525,229 523,227 522,227 521,226 520,226 518,224 517,224 516,223 515,223 513,221 512,221 510,219 508,219 509,220 509,229 510,230 510,242 509,243 509,244 508,245 508,246 506,248 506,249 503,252 503,270 512,270 513,271 516,271 517,272 518,272 519,273 519,278 518,279 518,281 517,282 517,284 516,285 516,287 515,288 515,290 514,291 514,292 513,293 513,295 512,296 512,297 511,298 511,299 510,300 510,302 509,303 508,303 507,304 506,304 505,305 504,305 503,306 502,306 500,308 499,308 498,309 497,309 495,307 496,306 496,285 495,284 492,284 491,285 488,285 487,286 486,286 485,287 483,287 482,288 482,289 481,290 480,290 480,291 481,292 481,293 482,294 482,295 483,296 483,298 484,299 484,300 485,301 485,303 486,304 486,305 487,306 487,307 488,308 488,309 489,310 489,311 490,310 491,310 492,311 491,312 492,313 492,314 493,315 493,317 494,318 494,319 495,320 495,321 496,322 496,323 497,324 497,326 499,328 499,330 500,331 500,332 501,333 501,334 502,335 502,337 503,338 503,339 504,340 504,341 505,342 505,343 506,344 506,345 507,346 507,347 508,348 508,349 509,350 509,351 510,352 510,354 511,355 511,356 512,357 512,358 513,359 513,360 514,361 514,362 515,363 515,365 516,366 516,367 517,368 517,370 518,371 518,372 519,373 519,374 521,376 521,379 520,380 519,380 518,381 517,381 516,382 514,380 514,379 513,378 513,377 512,376 512,375 511,374 511,373 510,372 510,371 509,370 509,368 508,367 508,366 506,364 506,363 505,362 505,361 504,360 504,358 503,357 503,356 502,355 502,354 501,353 501,352 500,351 500,350 499,349 499,348 498,347 498,346 497,345 497,344 496,343 496,342 495,341 495,340 494,339 494,338 493,337 493,336 492,335 492,334 491,333 491,332 490,331 490,330 489,329 489,328 488,327 488,325 487,324 487,323 486,322 486,321 485,320 485,319 484,318 484,317 483,316 482,317 481,317 479,319 476,319 475,318 475,317 473,315 473,314 472,313 471,313 470,314 468,314 467,313 468,312 467,311 467,309 468,308 469,309 469,310 470,311 471,311 468,308 468,307 466,305 466,304 464,302 464,300 463,299 462,299 461,298 461,296 460,295 459,295 458,294 458,293 457,293 456,294 455,294 454,295 453,295 451,297 450,297 444,303 444,305 448,309 449,309 450,310 451,310 451,297 452,296 453,297 453,301 454,302 453,303 453,304 453,303 454,302 456,304 455,305 455,306 454,307 453,306 453,309 454,310 453,311 454,310 455,311 455,312 456,313 457,312 458,312 459,313 458,314 459,313 460,313 461,314 460,315 461,314 462,315 462,316 463,316 466,319 467,319 468,318 469,318 470,319 469,320 472,320 473,321 472,322 471,322 469,324 468,324 467,325 466,325 465,326 464,326 463,327 462,327 461,328 460,328 459,329 458,329 457,330 455,330 454,331 453,331 452,332 451,331 451,330 452,329 451,328 447,328 446,327 442,327 441,326 438,326 437,325 434,325 433,324 430,324 429,323 427,323 426,322 425,322 422,319 423,318 423,315 424,314 424,313 425,312 425,311 426,310 426,309 428,307 428,306 430,304 430,303 433,300 433,299 449,283 450,283 450,282 452,280 453,280 454,279 455,279 455,278 456,277 457,278 457,279 459,279 466,286 466,287 468,289 468,290 471,293 471,294 473,296 473,297 473,296 472,295 472,294 471,293 471,292 469,290 469,289 470,288 469,287 469,288 468,289 467,288 467,287 466,286 466,284 467,283 468,284 468,285 468,281 470,279 471,279 473,277 474,277 475,276 476,276 477,275 478,275 477,274 478,273 479,273 480,274 482,274 483,273 485,273 486,272 490,272 491,271 495,271 496,270 497,270 497,268 498,267 499,268 499,270 501,270 501,269 500,269 499,268 499,257 498,257 497,256 494,256 493,257 491,257 490,258 488,258 487,259 486,259 485,260 484,260 483,261 482,261 481,262 471,262 470,261 469,261 467,259 466,259 464,257 464,258 463,259 461,257 461,256 459,256 458,255 455,255 454,254 452,254 452,255 453,256 453,258 452,259 452,275 453,276 453,279 452,280 451,279 451,278 450,277 450,252 449,251 448,251 445,248 445,247 443,245 443,244 442,243 442,225 443,224 443,218 Z" fill="black" stroke="none"/>
<path d="M958,211 Z" fill="black" stroke="none"/>
<path d="M962,209 961,210 961,211 958,214 958,215 956,217 956,218 954,220 954,221 951,224 951,225 949,227 949,228 947,230 947,235 946,236 946,239 945,240 945,241 944,242 944,243 942,245 942,246 940,248 940,249 935,254 933,254 932,253 933,252 933,251 937,247 937,246 940,243 940,242 941,241 941,240 942,239 942,237 942,238 940,240 940,241 937,244 937,245 935,247 934,247 933,246 933,245 931,243 931,242 929,240 929,239 927,237 927,236 925,234 925,233 923,231 923,230 921,228 918,231 918,232 916,234 916,236 915,237 915,238 914,239 914,241 913,242 913,245 912,246 912,248 913,247 914,247 915,246 920,246 921,247 922,247 923,248 924,248 929,253 929,254 930,255 930,257 931,258 931,259 932,260 936,260 937,261 941,261 942,262 947,262 948,263 938,273 936,271 936,270 934,268 934,267 933,266 933,265 932,264 932,263 932,267 931,268 931,275 930,276 930,279 931,280 932,280 935,283 934,284 933,284 931,286 930,286 929,287 929,297 930,298 930,299 931,300 931,301 932,301 934,303 937,303 938,304 942,304 943,305 950,305 951,306 951,308 950,309 940,309 939,310 939,312 938,313 938,314 937,315 936,315 932,311 932,310 927,305 927,304 928,303 926,301 926,299 925,298 925,290 924,290 923,291 922,291 921,290 922,289 922,286 923,285 923,282 924,281 924,278 925,277 926,277 926,273 927,272 927,259 926,258 926,256 924,254 924,253 923,252 922,252 921,251 920,251 919,250 916,250 915,251 914,251 914,252 913,253 913,254 912,255 912,263 913,264 913,270 914,271 914,277 915,278 915,284 916,285 916,291 917,292 917,298 918,299 918,304 919,305 919,311 920,312 920,319 921,320 921,325 922,326 922,332 923,333 923,338 924,339 924,346 925,347 925,351 924,352 919,352 918,351 918,347 917,346 917,340 916,339 916,334 915,333 915,326 914,325 914,319 913,318 913,312 912,311 912,309 911,309 910,308 907,308 906,307 902,307 901,306 901,305 902,304 902,303 903,302 903,301 905,299 905,298 908,295 909,296 909,297 910,298 910,300 911,301 911,302 911,299 910,298 910,292 909,291 909,285 908,284 908,278 907,277 907,272 906,271 906,264 905,263 905,259 906,258 906,257 905,256 904,256 903,255 900,255 899,256 897,256 895,258 895,259 896,260 895,261 894,261 894,262 893,263 893,266 894,267 894,270 895,271 895,275 896,276 896,279 897,280 897,293 896,294 896,295 893,298 892,298 891,299 884,299 883,298 881,298 882,299 882,305 883,306 883,308 882,309 879,309 878,308 880,306 880,304 879,303 879,302 877,300 876,300 875,301 874,300 874,299 875,298 876,298 876,297 877,296 877,293 878,292 880,292 881,293 882,293 883,294 884,294 885,295 891,295 892,294 892,293 893,292 893,280 892,279 892,276 891,275 891,271 890,270 890,265 889,264 890,263 890,261 889,261 888,260 886,260 885,259 884,259 882,257 881,257 880,256 879,256 875,252 874,252 874,257 875,258 875,263 874,264 869,264 868,265 863,265 862,266 856,266 856,269 857,270 857,274 858,275 858,279 859,280 859,284 860,285 860,289 861,290 861,297 860,298 860,300 859,301 859,302 858,303 858,305 857,306 857,307 856,308 856,310 855,311 853,311 850,314 849,314 845,318 845,321 843,323 842,323 835,330 835,331 836,331 840,327 841,327 842,326 842,325 843,324 844,324 845,325 845,334 846,335 846,338 847,339 847,341 848,342 848,344 849,345 849,346 851,348 851,349 852,350 852,351 854,353 854,354 859,359 860,359 861,360 862,360 863,361 865,361 866,360 867,360 868,359 869,359 873,355 874,356 874,357 877,357 878,358 878,366 879,367 879,385 880,386 880,404 881,404 883,406 882,407 883,408 883,503 884,504 884,603 885,604 885,711 886,712 886,722 891,722 892,723 889,726 888,726 885,729 884,729 882,731 881,731 880,732 879,732 878,733 874,733 873,734 863,734 862,735 858,735 857,736 856,736 853,739 854,739 855,740 856,740 857,741 859,741 860,742 862,742 863,743 866,743 867,744 871,744 872,745 879,745 880,746 887,746 888,745 893,745 894,744 897,744 898,743 901,743 902,742 905,742 906,741 908,741 909,742 909,746 928,746 929,745 929,737 928,736 928,728 929,727 929,709 930,708 930,663 931,662 931,621 932,620 932,576 933,575 933,533 934,532 934,490 935,489 935,459 936,458 937,459 937,463 938,464 938,470 939,471 939,477 940,478 940,483 941,484 941,490 942,491 942,497 943,498 943,504 944,505 944,511 945,512 945,518 946,519 946,524 947,525 947,532 948,533 948,538 949,539 949,545 950,546 950,552 951,553 951,558 952,559 952,565 953,566 953,572 954,573 954,579 955,580 955,586 956,587 956,593 957,594 957,599 958,600 958,606 959,607 959,613 960,614 960,620 961,621 961,627 962,628 962,633 963,634 963,640 964,641 964,647 965,648 965,654 966,655 966,661 967,662 967,668 968,669 968,675 969,676 969,682 970,683 970,688 971,689 971,695 972,696 972,702 973,703 973,709 974,710 974,716 975,717 975,721 976,722 981,722 982,723 981,724 981,740 980,741 979,741 979,746 1014,746 1015,745 1015,744 1014,743 1014,741 1013,741 1012,740 1011,740 1010,739 1011,738 1011,737 1010,736 1010,734 1009,733 1009,732 1008,731 1008,729 1007,728 1007,726 1006,725 1006,724 1005,723 1006,722 1011,722 1011,715 1010,714 1010,701 1009,700 1009,688 1008,687 1008,675 1007,674 1007,662 1006,661 1006,648 1005,647 1005,635 1004,634 1004,622 1003,621 1003,609 1002,608 1002,595 1001,594 1001,582 1000,581 1000,569 999,568 999,556 998,555 998,543 997,542 997,529 996,528 996,516 995,515 995,502 994,501 994,490 993,489 993,476 992,475 992,462 991,461 991,450 990,449 990,437 989,436 989,424 988,423 988,410 987,409 987,406 989,404 989,389 986,389 985,390 980,390 979,389 979,384 978,383 978,377 977,376 977,372 976,371 976,366 975,365 975,359 974,358 974,350 973,349 973,337 972,336 972,332 971,331 971,323 970,322 970,315 969,314 969,310 968,309 968,300 967,299 967,294 966,293 966,285 965,284 965,278 964,277 964,270 963,269 963,263 962,262 962,256 961,255 961,252 962,251 964,251 966,253 966,256 967,257 967,263 968,264 968,269 969,270 969,278 970,279 970,285 971,286 971,293 972,294 972,300 973,301 973,306 974,307 974,312 975,313 975,321 976,322 976,328 977,329 977,334 978,335 978,343 982,343 983,342 985,342 986,341 990,341 991,340 991,321 992,320 991,319 991,313 990,312 990,306 989,305 989,299 988,298 988,291 987,290 987,283 986,282 986,274 985,273 985,266 984,265 984,247 985,246 985,244 986,243 986,240 987,239 987,237 988,236 988,234 989,233 989,232 990,231 990,229 991,228 991,227 992,226 992,225 993,224 993,223 994,222 994,221 993,221 992,220 991,220 990,219 988,219 987,218 986,218 985,217 983,217 982,216 980,216 979,215 978,215 977,214 975,214 974,213 973,213 972,212 970,212 969,211 968,211 967,210 965,210 964,209 Z" fill="black" stroke="none"/>
<path d="M906,208 905,209 903,209 902,210 900,210 899,211 897,211 896,212 894,212 893,213 892,213 891,214 889,214 888,215 886,215 885,216 884,216 883,217 881,217 880,218 878,218 877,219 875,219 874,220 873,220 873,224 874,224 875,223 876,223 877,222 879,222 880,221 887,221 888,222 891,222 892,223 893,223 894,224 895,224 897,226 898,226 903,231 903,232 905,234 905,235 906,236 906,237 907,238 907,239 908,240 908,241 909,242 909,244 909,243 910,242 910,239 911,238 911,237 912,236 912,234 914,232 914,231 915,230 915,229 919,225 919,224 917,222 917,221 915,219 915,218 913,216 913,215 911,213 911,212 909,210 909,209 908,208 Z" fill="black" stroke="none"/>
<path d="M474,176 473,177 471,177 469,179 468,179 466,181 465,181 463,183 464,184 469,184 470,185 481,185 482,184 487,184 487,183 486,182 485,182 482,179 481,179 479,177 477,177 476,176 Z" fill="black" stroke="none"/>
<path d="M508,153 507,154 505,154 505,155 504,156 504,158 503,159 503,161 502,162 502,170 503,171 503,174 504,173 504,172 505,171 505,169 506,168 506,167 507,166 507,163 508,162 508,158 509,157 509,156 508,155 Z" fill="black" stroke="none"/>
<path d="M443,152 443,153 442,154 442,159 443,160 443,163 444,164 444,167 445,168 445,169 446,170 446,171 447,172 447,173 448,174 448,173 449,172 449,161 448,160 448,158 447,157 447,154 445,152 Z" fill="black" stroke="none"/>
<path d="M456,131 455,132 454,132 453,133 453,141 454,142 454,145 455,146 455,149 456,150 456,155 455,156 455,158 454,159 454,161 453,162 453,164 454,165 454,168 455,169 455,171 456,172 456,173 457,172 459,172 461,170 462,170 463,169 465,169 466,168 469,168 470,169 471,169 473,171 474,171 475,172 477,172 479,170 480,170 481,169 487,169 488,170 489,170 491,172 492,172 493,173 493,174 494,174 495,173 495,172 496,171 496,169 497,168 497,164 498,163 498,154 497,153 497,152 498,151 498,146 499,145 499,133 498,133 497,132 488,132 487,133 483,133 482,134 479,134 478,135 476,135 475,134 472,134 471,133 468,133 467,132 462,132 461,131 Z" fill="black" stroke="none"/>
<path d="M692,117 691,118 689,118 688,119 686,119 685,120 684,120 682,122 681,122 677,126 676,126 675,127 675,128 672,131 672,132 671,133 671,134 670,135 670,137 669,138 669,141 668,142 668,144 666,146 666,147 655,158 655,159 653,161 653,162 652,163 652,164 651,165 651,166 650,167 650,169 649,170 649,172 648,173 648,178 647,179 647,194 648,195 648,206 649,207 649,213 648,214 648,215 647,216 647,217 646,218 646,219 643,222 643,223 641,225 641,226 639,228 639,229 637,231 637,232 636,233 636,234 635,235 635,236 634,237 634,238 633,239 633,240 632,241 632,243 631,244 631,247 630,248 630,251 629,252 629,279 630,280 630,283 631,284 631,286 632,287 632,288 634,290 634,291 635,292 636,292 638,294 640,294 641,295 641,324 642,325 642,332 643,333 643,335 644,336 644,337 645,338 645,339 646,340 646,341 647,342 647,343 649,345 649,346 650,347 650,348 652,350 652,351 654,353 654,354 656,356 656,357 657,358 657,359 660,362 660,363 662,365 662,366 664,368 664,369 666,371 666,372 665,373 665,375 664,376 664,379 663,380 663,382 662,383 662,385 661,386 661,389 660,390 660,392 659,393 659,395 658,396 658,399 657,400 657,402 656,403 656,406 655,407 655,409 654,410 654,413 653,414 653,417 652,418 652,421 651,422 651,425 650,426 650,444 651,445 651,469 652,470 652,487 653,488 653,507 654,508 654,524 655,525 655,542 656,543 656,559 657,560 657,575 658,576 658,591 659,592 659,608 660,609 660,625 661,626 661,639 662,640 662,657 663,658 663,671 664,672 664,688 665,689 665,703 666,704 666,707 679,707 680,708 680,713 679,714 679,717 678,718 678,720 677,721 677,722 676,723 676,725 674,727 674,728 673,729 673,730 672,731 672,732 671,733 671,734 670,735 670,737 669,738 670,739 670,741 674,745 675,745 676,746 679,746 680,745 686,745 687,744 689,744 690,743 691,743 694,740 694,736 695,735 695,731 694,730 695,729 694,728 695,727 695,722 696,721 696,720 697,719 697,717 698,716 698,714 697,713 697,711 695,709 695,708 696,707 702,707 702,683 703,682 703,607 704,606 704,528 705,527 705,459 706,458 707,459 707,464 708,465 708,475 709,476 709,486 710,487 710,497 711,498 711,508 712,509 712,518 713,519 713,529 714,530 714,540 715,541 715,551 716,552 716,561 717,562 717,572 718,573 718,583 719,584 719,593 720,594 720,604 721,605 721,615 722,616 722,626 723,627 723,636 724,637 724,647 725,648 725,658 726,659 726,668 727,669 727,680 728,681 728,690 729,691 729,701 730,702 730,707 737,707 738,708 738,709 737,710 737,711 734,714 734,715 733,716 733,717 732,718 732,723 733,724 733,725 734,726 734,727 735,728 735,729 736,730 736,731 737,732 737,733 738,734 738,736 739,737 739,739 740,740 740,743 741,744 741,746 744,746 745,745 745,744 744,743 744,738 743,737 743,732 744,731 745,731 751,737 752,737 757,742 758,742 762,746 785,746 786,745 786,744 785,743 784,743 782,741 781,741 779,739 778,739 775,736 774,736 772,734 771,734 758,721 758,720 757,719 757,718 756,717 756,716 755,715 755,714 754,713 754,712 753,711 753,710 752,709 752,708 753,707 766,707 766,681 765,680 765,640 764,639 764,600 763,599 763,562 762,561 762,528 761,527 761,498 760,497 760,470 759,469 759,448 758,447 758,433 757,432 757,424 756,423 756,420 755,419 755,416 754,415 754,412 753,411 753,409 752,408 752,406 751,405 751,403 750,402 750,399 749,398 749,396 748,395 748,393 747,392 747,391 746,390 746,388 745,387 745,385 746,384 749,384 750,383 751,384 755,384 756,383 760,383 761,382 771,382 772,381 781,381 782,380 789,380 790,379 789,378 789,373 788,372 788,362 787,361 787,355 788,354 789,354 789,352 790,351 790,350 791,349 791,348 792,347 792,344 793,343 793,335 792,334 792,332 791,331 791,329 790,328 790,327 789,326 789,325 788,325 786,323 785,323 783,321 783,320 782,319 782,307 781,306 781,302 780,301 780,297 781,296 781,295 782,294 783,294 782,293 782,287 781,286 781,280 780,280 779,281 771,281 769,279 769,278 768,277 771,274 771,273 773,271 773,264 772,263 772,261 770,259 770,258 766,254 766,252 765,251 765,243 764,242 764,238 763,237 763,235 762,234 762,232 761,231 761,229 760,228 760,227 759,226 759,225 758,224 758,223 756,221 756,220 754,218 754,217 752,215 752,214 750,212 750,211 749,210 749,208 748,207 748,205 749,204 749,198 750,197 750,170 749,169 749,164 748,163 748,161 747,160 747,158 746,157 746,156 744,154 744,153 743,152 742,152 740,150 740,149 739,148 739,147 738,146 738,144 737,143 737,142 736,141 736,140 735,139 735,137 734,136 734,135 732,133 732,132 729,129 728,129 727,128 726,128 725,127 721,127 720,126 717,126 716,125 715,125 714,124 713,124 711,122 710,122 709,121 708,121 706,119 704,119 703,118 700,118 699,117 Z" fill="black" stroke="none"/>
<path d="M1150,116 1149,117 1147,117 1143,121 1143,123 1142,124 1142,125 1141,126 1141,129 1140,130 1140,133 1139,134 1139,138 1138,139 1138,146 1137,147 1137,158 1136,159 1136,165 1137,166 1137,167 1138,168 1140,168 1141,169 1146,169 1147,170 1151,170 1152,171 1152,177 1153,178 1153,183 1154,184 1154,185 1155,186 1155,188 1156,189 1156,190 1157,191 1157,192 1159,194 1159,195 1162,198 1163,198 1164,199 1168,199 1169,200 1169,202 1168,203 1168,204 1167,205 1167,207 1166,208 1166,210 1165,211 1165,212 1164,213 1164,214 1163,215 1163,216 1160,219 1159,218 1152,218 1151,217 1144,217 1143,216 1130,216 1130,217 1129,218 1128,218 1127,219 1127,220 1125,222 1125,223 1122,226 1122,227 1121,228 1121,229 1119,231 1119,232 1118,233 1118,234 1116,236 1116,238 1118,238 1119,239 1121,239 1122,240 1124,240 1125,241 1127,241 1128,242 1130,242 1131,243 1133,243 1134,244 1137,244 1138,245 1145,245 1146,246 1151,246 1152,247 1159,247 1160,248 1167,248 1168,249 1173,249 1174,250 1181,250 1182,251 1188,251 1189,252 1196,252 1197,253 1203,253 1204,254 1239,254 1240,253 1241,254 1242,253 1243,254 1245,254 1247,256 1247,258 1248,259 1248,261 1249,262 1249,263 1250,264 1250,266 1251,267 1251,268 1252,269 1252,271 1253,272 1253,273 1254,274 1254,276 1255,277 1255,278 1256,279 1256,281 1257,282 1257,283 1258,284 1258,286 1259,287 1259,289 1260,290 1260,291 1261,292 1259,294 1257,294 1256,295 1252,295 1251,296 1248,296 1247,297 1245,297 1244,298 1242,298 1241,299 1237,299 1236,300 1232,300 1231,301 1220,301 1219,300 1216,300 1215,299 1213,299 1213,303 1212,304 1212,309 1211,310 1211,314 1210,315 1210,319 1209,320 1208,319 1208,316 1207,315 1207,309 1206,308 1204,308 1203,307 1202,307 1201,306 1199,306 1198,305 1197,305 1196,304 1198,302 1199,302 1201,300 1202,300 1204,298 1204,297 1206,295 1206,293 1207,292 1207,288 1206,288 1206,292 1205,293 1205,294 1203,296 1203,297 1200,300 1199,300 1197,302 1196,302 1195,303 1191,303 1190,302 1188,302 1187,301 1185,301 1184,300 1182,300 1181,299 1180,299 1179,298 1177,298 1176,297 1174,297 1173,296 1172,296 1170,294 1170,292 1169,291 1169,290 1168,289 1168,288 1167,287 1167,286 1164,283 1163,283 1161,281 1160,281 1159,280 1158,280 1157,279 1155,279 1154,278 1146,278 1145,279 1144,279 1143,280 1142,280 1141,281 1140,281 1138,283 1136,283 1135,282 1132,282 1131,281 1131,280 1130,280 1127,277 1126,277 1125,276 1122,276 1120,274 1120,270 1121,269 1121,268 1122,267 1122,265 1124,263 1124,262 1125,261 1125,260 1126,259 1126,258 1127,257 1127,256 1129,254 1129,253 1130,252 1130,251 1132,249 1132,248 1131,248 1130,249 1130,250 1128,252 1128,253 1127,254 1127,255 1125,257 1125,258 1124,259 1124,260 1123,261 1123,262 1122,263 1122,264 1121,265 1121,266 1120,267 1120,268 1119,269 1119,274 1118,275 1117,275 1116,276 1113,276 1112,277 1111,277 1110,278 1109,278 1107,280 1105,280 1104,279 1103,279 1102,280 1102,281 1101,282 1101,283 1100,284 1100,286 1099,287 1099,288 1098,289 1098,291 1097,292 1097,293 1096,294 1096,295 1095,296 1095,297 1094,298 1093,298 1092,299 1090,299 1089,300 1088,300 1087,301 1085,301 1084,302 1083,302 1082,303 1081,303 1080,304 1078,304 1077,305 1076,305 1075,306 1074,306 1073,307 1071,307 1070,308 1069,308 1068,309 1067,309 1067,311 1068,312 1068,315 1069,316 1069,320 1070,321 1070,323 1071,324 1071,328 1072,329 1072,332 1073,333 1073,336 1074,337 1074,346 1073,347 1074,348 1074,349 1075,350 1075,351 1077,353 1077,354 1079,356 1079,357 1084,362 1086,362 1087,363 1089,363 1090,364 1091,364 1092,365 1096,365 1097,366 1099,366 1102,363 1103,363 1104,364 1105,364 1106,365 1109,365 1110,366 1111,366 1112,367 1114,367 1116,369 1118,369 1120,371 1120,372 1119,373 1119,375 1118,376 1118,379 1117,380 1117,383 1116,384 1116,403 1117,404 1117,416 1118,417 1118,428 1119,429 1119,440 1120,441 1120,452 1121,453 1121,463 1122,464 1122,475 1123,476 1123,486 1124,487 1124,497 1125,498 1125,508 1126,509 1126,519 1127,520 1127,530 1128,531 1128,541 1129,542 1129,552 1130,553 1130,563 1131,564 1131,574 1132,575 1132,584 1133,585 1133,595 1134,596 1134,607 1135,608 1135,617 1136,618 1136,628 1137,629 1137,639 1138,640 1138,649 1139,650 1139,660 1140,661 1140,670 1141,671 1141,681 1142,682 1142,692 1143,693 1143,703 1144,704 1144,713 1145,714 1155,714 1156,715 1156,723 1155,724 1154,724 1149,729 1148,729 1147,730 1145,730 1144,731 1142,731 1141,732 1139,732 1138,733 1136,733 1135,734 1133,734 1132,735 1130,735 1129,736 1127,736 1126,737 1125,737 1121,741 1121,742 1120,743 1120,745 1180,745 1180,736 1179,735 1179,731 1178,730 1178,727 1177,726 1177,724 1175,722 1175,717 1174,716 1174,715 1175,714 1179,714 1179,680 1178,679 1178,643 1177,642 1177,608 1176,607 1176,570 1175,569 1175,536 1174,535 1174,498 1173,497 1173,464 1172,463 1172,454 1173,453 1174,454 1174,459 1175,460 1175,465 1176,466 1176,471 1177,472 1177,477 1178,478 1178,483 1179,484 1179,489 1180,490 1180,495 1181,496 1181,501 1182,502 1182,507 1183,508 1183,513 1184,514 1184,519 1185,520 1185,525 1186,526 1186,531 1187,532 1187,538 1188,539 1188,543 1189,544 1189,550 1190,551 1190,556 1191,557 1191,562 1192,563 1192,567 1193,568 1193,574 1194,575 1194,580 1195,581 1195,586 1196,587 1196,592 1197,593 1197,598 1198,599 1198,604 1199,605 1199,610 1200,611 1200,616 1201,617 1201,622 1202,623 1202,628 1203,629 1203,634 1204,635 1204,640 1205,641 1205,647 1206,648 1206,652 1207,653 1207,659 1208,660 1208,664 1209,665 1209,671 1210,672 1210,676 1211,677 1211,683 1212,684 1212,689 1213,690 1213,695 1214,696 1214,701 1215,702 1215,707 1216,708 1216,713 1217,714 1232,714 1233,715 1233,716 1234,717 1234,722 1227,729 1226,729 1225,730 1223,730 1222,731 1221,731 1220,732 1217,732 1216,733 1214,733 1213,734 1211,734 1210,735 1208,735 1207,736 1205,736 1204,737 1203,737 1202,738 1201,738 1200,739 1200,740 1199,741 1199,742 1198,743 1198,745 1258,745 1258,736 1257,735 1257,731 1256,730 1256,728 1255,727 1255,725 1253,723 1253,720 1252,719 1252,715 1253,714 1254,714 1254,703 1253,702 1253,690 1252,689 1252,676 1251,675 1251,663 1250,662 1250,651 1249,650 1249,638 1248,637 1248,626 1247,625 1247,613 1246,612 1246,601 1245,600 1245,588 1244,587 1244,577 1243,576 1243,564 1242,563 1242,553 1241,552 1241,540 1240,539 1240,529 1239,528 1239,518 1238,517 1238,506 1237,505 1237,496 1236,495 1236,484 1235,483 1235,473 1234,472 1234,462 1233,461 1233,453 1232,452 1232,443 1231,442 1231,433 1230,432 1230,425 1229,424 1229,418 1228,417 1228,412 1227,411 1227,409 1226,408 1226,406 1225,405 1225,404 1224,403 1224,402 1223,401 1223,400 1222,399 1222,398 1221,397 1221,396 1219,394 1219,393 1218,392 1218,391 1217,390 1217,389 1215,387 1215,386 1214,385 1214,384 1212,382 1212,381 1210,379 1210,378 1208,376 1208,375 1207,374 1207,373 1206,372 1208,370 1211,370 1212,369 1215,369 1216,368 1218,368 1219,367 1222,367 1223,366 1225,366 1226,365 1228,365 1229,364 1232,364 1233,363 1234,363 1235,362 1237,362 1238,361 1239,361 1240,360 1242,360 1243,359 1244,359 1246,357 1246,353 1247,352 1248,352 1249,351 1251,351 1252,350 1254,350 1255,349 1256,349 1257,348 1259,348 1260,347 1261,347 1262,346 1263,346 1264,345 1265,345 1267,343 1268,343 1269,342 1270,342 1272,340 1273,340 1276,337 1277,337 1282,332 1282,331 1284,329 1284,328 1286,326 1286,324 1287,323 1287,320 1288,319 1288,315 1287,314 1287,310 1286,309 1286,307 1285,306 1285,305 1284,304 1284,302 1283,301 1283,300 1282,299 1282,298 1281,297 1281,296 1280,295 1280,294 1279,293 1279,292 1278,291 1278,290 1277,289 1277,288 1276,287 1276,286 1275,285 1275,284 1274,283 1274,282 1273,281 1273,280 1272,279 1272,278 1271,277 1271,276 1270,275 1270,274 1269,273 1269,272 1268,271 1268,270 1267,269 1267,268 1266,267 1266,266 1265,265 1265,263 1264,262 1264,260 1263,259 1263,254 1264,253 1264,250 1265,249 1265,247 1266,246 1266,245 1267,244 1267,242 1268,241 1268,239 1269,238 1269,237 1270,236 1270,234 1271,233 1271,230 1272,229 1272,227 1273,226 1273,221 1274,220 1274,212 1273,211 1273,209 1272,208 1272,207 1271,206 1271,205 1261,195 1260,195 1257,192 1256,192 1254,190 1253,190 1251,188 1250,188 1248,186 1247,186 1245,184 1244,184 1242,182 1241,182 1239,180 1238,180 1236,178 1235,178 1232,175 1231,175 1223,167 1223,165 1222,164 1222,139 1221,138 1221,131 1220,130 1220,127 1219,126 1219,124 1217,122 1217,121 1216,120 1215,120 1214,119 1212,119 1211,118 1206,118 1205,117 1192,117 1191,116 1182,116 1181,117 1157,117 1156,116 Z" fill="black" stroke="none"/>
<path d="M171,109 170,110 168,110 167,111 166,111 165,112 164,112 163,113 162,113 161,114 160,114 159,115 158,115 156,117 155,117 154,118 153,118 152,119 151,119 150,120 146,120 145,121 136,121 135,122 132,122 131,123 129,123 128,124 127,124 126,125 126,137 127,138 127,143 128,144 128,149 129,150 129,153 130,154 130,156 131,157 131,158 129,160 128,160 128,167 129,168 129,169 130,170 130,171 131,172 131,173 132,174 132,175 133,176 134,176 135,177 138,177 140,175 142,177 141,178 141,179 142,180 141,181 141,195 140,196 140,202 139,203 139,204 138,205 138,206 135,209 134,209 133,210 131,210 130,211 129,211 128,212 127,212 125,214 124,214 122,216 121,216 119,218 118,218 116,220 115,220 113,222 112,222 110,224 109,224 107,226 106,226 103,229 102,229 100,231 99,231 94,236 94,237 93,238 93,250 94,251 94,258 95,259 95,264 96,265 96,269 97,270 97,274 98,275 98,278 99,279 99,282 100,283 100,284 101,285 101,288 102,289 102,296 103,297 103,304 104,305 104,311 105,312 105,319 106,320 106,328 107,329 107,336 108,337 108,345 109,346 109,355 110,356 110,366 109,367 109,373 108,374 108,381 109,382 109,383 110,384 110,385 112,387 112,388 115,391 115,400 116,401 116,408 115,409 115,448 114,449 114,514 113,515 113,590 112,591 112,698 111,699 111,731 112,731 113,732 113,734 112,735 112,745 164,745 165,746 166,745 166,744 165,743 165,742 162,739 161,739 160,738 159,738 158,737 156,737 155,736 154,736 153,735 150,735 149,734 148,734 147,733 145,733 144,732 145,731 147,731 147,727 148,726 148,717 149,716 149,706 150,705 150,694 151,693 151,684 152,683 152,673 153,672 153,662 154,661 154,651 155,650 155,641 156,640 156,629 157,628 157,619 158,618 158,608 159,607 159,597 160,596 160,587 161,586 161,575 162,574 162,564 163,563 163,554 164,553 164,543 165,542 165,532 166,531 166,522 167,521 167,510 168,509 168,500 169,499 169,489 170,488 170,478 171,477 171,467 172,466 172,464 173,463 174,464 174,467 175,468 175,471 176,472 176,476 177,477 177,480 178,481 178,484 179,485 179,488 180,489 180,492 181,493 181,496 182,497 182,500 183,501 183,504 184,505 184,507 185,508 185,511 186,512 186,515 187,516 187,519 188,520 188,523 189,524 189,526 190,527 190,530 191,531 191,534 192,535 192,538 193,539 193,542 194,543 194,545 195,546 195,549 196,550 196,556 197,557 197,563 198,564 198,570 199,571 199,577 200,578 200,583 201,584 201,590 202,591 202,597 203,598 203,604 204,605 204,610 205,611 205,618 206,619 206,624 207,625 207,631 208,632 208,638 209,639 209,644 210,645 210,651 211,652 211,658 212,659 212,665 213,666 213,671 214,672 214,679 215,680 215,685 216,686 216,691 217,692 217,699 218,700 218,706 219,707 219,713 220,714 220,719 221,720 221,726 222,727 222,731 223,732 223,738 222,739 222,745 275,745 276,746 276,743 274,741 274,740 273,740 271,738 270,738 269,737 267,737 266,736 264,736 263,735 261,735 260,734 258,734 257,733 256,733 255,732 255,723 254,722 254,708 253,707 253,693 252,692 252,677 251,676 251,664 250,663 250,648 249,647 249,633 248,632 248,618 247,617 247,603 246,602 246,589 245,588 245,573 244,572 244,559 243,558 243,544 242,543 242,540 241,539 241,536 240,535 240,532 239,531 239,528 238,527 238,524 237,523 237,520 236,519 236,515 235,514 235,511 234,510 234,507 233,506 233,503 232,502 232,498 231,497 231,494 230,493 230,490 229,489 229,486 228,485 228,481 227,480 227,477 226,476 226,473 225,472 225,468 224,467 224,464 223,463 223,460 222,459 222,456 221,455 221,451 220,450 220,446 219,445 219,442 218,441 218,437 217,436 217,433 216,432 216,428 215,427 215,424 214,423 214,419 213,418 213,414 212,413 212,410 211,409 211,404 212,403 212,392 213,391 213,390 215,388 215,386 216,385 214,385 213,384 212,384 211,383 209,383 208,382 207,382 206,381 204,381 203,380 202,380 201,379 199,379 198,378 197,378 196,377 194,377 193,376 192,376 191,375 189,375 188,374 186,374 185,373 184,373 183,372 181,372 180,371 180,370 181,369 181,367 182,366 182,364 183,363 183,362 184,361 184,359 185,358 187,360 187,361 188,362 188,363 190,365 190,366 191,366 193,364 194,364 195,363 196,363 197,362 198,362 198,361 199,360 199,359 197,357 195,357 194,358 193,358 191,356 191,355 190,355 189,354 188,355 187,355 186,354 187,353 187,352 189,350 190,350 191,349 193,349 194,348 196,348 197,347 198,347 199,346 201,346 202,345 204,345 205,344 207,344 208,343 210,343 211,342 212,342 213,341 214,341 215,340 217,340 218,339 220,339 221,338 222,338 223,337 225,337 226,336 227,336 228,335 230,335 231,334 232,334 233,333 235,333 236,332 237,332 238,331 239,331 240,330 241,330 242,329 243,329 244,328 245,329 245,331 246,332 246,333 247,334 247,336 248,337 248,338 251,338 252,337 254,337 255,336 256,336 258,334 258,333 257,332 257,331 256,331 255,330 254,331 252,331 251,330 251,329 250,328 249,328 248,327 249,326 250,326 251,325 252,325 253,324 254,324 255,323 255,320 257,318 260,318 261,317 263,317 264,316 266,316 267,315 269,315 270,314 273,314 274,313 276,313 277,312 279,312 280,311 281,311 282,312 282,313 281,314 281,315 280,316 280,318 279,319 279,320 278,321 278,323 277,324 277,326 276,327 276,329 275,330 275,331 274,332 274,334 273,335 273,337 272,338 272,339 271,340 271,342 270,343 270,345 269,346 269,347 268,348 268,350 267,351 267,353 266,354 266,355 265,356 265,358 264,359 264,361 263,362 263,364 262,365 262,367 261,368 261,369 260,370 260,372 259,373 259,374 258,375 258,377 257,378 257,380 256,381 256,383 255,384 255,385 254,386 254,388 253,389 253,391 252,392 252,393 251,394 251,396 252,396 253,397 256,397 257,398 259,398 259,397 260,396 260,394 261,393 261,392 262,391 262,389 263,388 263,386 264,385 264,384 265,383 266,384 266,385 267,386 267,388 268,389 269,389 270,388 272,388 273,387 274,387 275,386 276,386 277,385 277,382 276,381 273,381 272,382 270,380 270,379 269,378 268,378 267,377 267,376 268,375 268,373 269,372 269,370 270,369 270,367 271,366 271,365 272,364 272,362 273,361 273,360 274,359 274,357 275,356 275,354 276,353 276,352 277,351 277,349 278,348 278,346 279,345 279,344 280,343 280,341 281,340 281,338 282,337 282,336 283,335 284,336 284,337 287,337 288,336 289,336 290,335 292,335 294,333 294,331 292,329 290,329 289,330 288,330 287,329 287,328 286,327 286,325 287,324 287,322 288,321 288,320 289,319 289,317 290,316 290,314 291,313 291,311 292,310 292,309 293,308 293,306 294,305 294,304 295,303 295,301 296,300 296,298 297,297 297,295 298,294 298,293 299,292 299,290 300,289 300,288 301,287 301,284 300,284 299,283 298,283 297,282 296,282 295,281 293,281 293,283 292,284 292,286 290,288 289,288 288,289 287,289 286,290 285,290 284,291 283,291 281,293 278,293 277,294 275,294 274,295 272,295 271,296 268,296 267,297 266,297 265,296 265,295 269,291 270,291 271,290 271,289 273,287 273,284 271,284 268,287 267,287 265,289 264,289 259,294 258,294 254,298 253,298 252,299 251,299 250,298 246,298 245,299 240,299 239,300 233,300 232,301 227,301 226,302 222,302 221,303 216,303 215,304 210,304 209,305 206,305 205,304 205,303 206,302 206,300 207,299 207,298 208,297 208,295 209,294 209,292 210,291 210,290 211,289 211,287 212,286 212,285 213,284 213,282 214,281 214,279 215,278 215,277 216,276 216,274 217,273 217,271 218,270 218,269 219,268 219,266 220,265 220,263 221,262 221,261 222,260 222,258 223,257 223,256 224,255 225,256 227,256 228,257 231,257 232,258 234,258 235,259 237,259 238,260 240,260 241,261 243,261 244,262 245,262 245,261 241,257 240,257 222,239 224,237 225,237 227,235 228,235 229,234 230,234 231,233 233,233 234,232 235,232 236,231 239,231 240,230 248,230 250,232 250,233 251,234 251,236 252,237 252,240 253,241 253,247 254,248 254,256 255,257 255,265 258,265 259,266 261,266 262,267 264,267 265,268 266,268 268,266 268,265 272,261 272,260 276,256 276,255 290,241 294,241 299,246 299,247 301,249 301,250 302,251 302,252 303,253 303,254 304,255 304,256 305,257 305,259 306,260 306,266 305,267 304,267 303,268 302,268 301,269 300,269 299,270 297,270 296,271 294,271 293,272 290,272 289,273 287,273 286,274 282,274 281,275 282,275 283,276 285,276 286,277 287,277 288,278 289,278 290,279 293,279 294,278 298,278 299,277 302,277 303,276 306,276 307,275 309,275 310,274 312,274 313,273 314,273 315,272 316,272 317,271 318,271 319,270 320,270 325,265 325,264 326,263 326,256 325,255 325,252 324,251 324,250 323,249 323,247 321,245 321,244 320,243 320,242 316,238 316,237 312,233 311,233 308,230 307,230 306,229 305,229 304,228 303,228 302,227 301,227 300,226 292,226 291,227 290,227 284,233 284,234 280,238 280,239 277,242 277,243 274,246 274,247 271,250 271,251 269,253 269,254 267,256 267,257 264,260 264,261 262,263 262,264 261,265 260,264 260,256 261,255 261,227 260,226 260,218 259,217 259,213 258,212 258,211 257,210 257,209 256,208 255,208 254,207 253,207 252,206 243,206 242,207 240,207 239,208 237,208 236,209 234,209 233,210 232,210 231,211 230,211 229,212 228,212 227,213 226,213 224,215 223,215 221,217 220,217 218,219 217,219 212,224 211,224 209,226 207,226 205,224 204,224 203,223 202,223 201,222 200,222 199,221 197,221 196,220 195,220 194,219 192,219 191,218 190,218 189,217 187,217 186,216 185,216 184,215 182,215 181,214 179,214 178,213 177,213 176,212 174,212 173,211 170,211 168,209 168,208 166,206 166,199 167,198 173,198 176,195 176,194 177,193 177,192 178,191 178,189 179,188 179,185 180,184 180,181 181,180 181,176 182,175 182,166 183,165 183,154 184,153 185,153 186,154 188,152 188,151 190,149 190,148 192,146 192,145 193,144 193,143 194,142 194,141 195,140 195,139 196,138 196,137 197,136 197,134 198,133 198,132 199,131 199,124 198,123 190,123 189,124 186,124 184,122 184,121 183,120 183,118 182,117 182,115 181,114 181,113 177,109 Z" fill="black" stroke="none"/>
<path d="M930,98 929,99 925,99 924,100 922,100 921,101 920,101 919,102 918,102 917,103 916,103 914,105 913,105 905,113 905,114 903,116 903,117 902,118 902,125 903,126 903,129 904,130 904,133 905,134 905,136 906,137 906,139 907,140 907,141 908,142 908,144 907,145 906,144 902,144 902,153 903,154 903,157 904,158 904,159 905,160 905,162 906,163 906,164 907,165 909,165 910,164 911,164 912,165 912,171 913,172 913,176 914,177 914,178 917,181 917,182 918,183 918,197 917,198 917,200 915,202 915,203 912,206 912,207 915,210 915,211 918,214 918,215 919,216 919,217 922,220 922,221 924,221 925,220 926,220 927,219 928,219 929,218 938,218 939,219 940,219 941,220 942,220 945,223 946,223 946,222 948,220 948,219 950,217 950,216 952,214 952,213 953,212 953,211 955,209 955,208 956,207 956,206 955,205 955,204 953,202 953,201 952,200 952,199 951,198 951,192 950,191 950,189 951,188 951,185 950,184 951,183 951,182 955,178 955,177 956,176 956,171 957,170 957,166 958,165 962,165 962,164 963,163 963,162 964,161 964,160 965,159 965,157 966,156 966,152 967,151 967,145 966,144 965,144 964,143 962,145 961,145 960,144 961,143 961,141 962,140 962,139 963,138 963,136 964,135 964,133 965,132 965,129 966,128 966,123 967,122 967,119 966,118 966,117 965,116 965,115 963,113 963,112 958,107 957,107 954,104 953,104 951,102 950,102 949,101 947,101 946,100 944,100 943,99 940,99 939,98 Z" fill="black" stroke="none"/>
</svg>